M48
;GenerationSoftware,Autodesk,EAGLE,9.6.2*%
;CreationDate,2021-09-10T22:24:21Z*%
FMAT,2
ICI,OFF
METRIC,TZ,000.000
T1C0.305
%
G90
M71
T1
X23089Y19609
X5486Y64313
X20777Y6934
X17958Y3454
X18440Y15697
X28118Y3454
X8941Y4597
X6071Y17831
X6020Y15011
X8839Y12929
X23038Y29591
X16713Y27508
X17882Y37440
X18974Y45339
X21387Y43510
X20650Y32842
X21869Y25425
X18999Y26187
X18999Y22403
X16408Y43510
X20853Y24359
X16891Y40589
X21031Y37414
X17069Y6121
X12141Y24130
X17120Y24384
X18999Y38100
X25857Y9923
X17221Y12192
X21895Y26822
X10135Y3327
X20853Y23546
X23063Y23368
X17221Y7112
X19761Y6858
X18491Y6858
X61598Y19609
X43995Y64313
X59286Y6934
X56467Y3454
X56949Y15697
X66627Y3454
X47450Y4597
X44580Y17831
X44529Y15011
X47348Y12929
X61547Y29591
X55222Y27508
X56391Y37440
X57483Y45339
X59896Y43510
X59159Y32842
X60378Y25425
X57508Y26187
X57508Y22403
X54917Y43510
X59362Y24359
X55400Y40589
X59540Y37414
X55578Y6121
X50650Y24130
X55629Y24384
X57508Y38100
X64366Y9923
X55730Y12192
X60404Y26822
X48644Y3327
X59362Y23546
X61572Y23368
X55730Y7112
X58270Y6858
X57000Y6858
X100104Y19609
X82502Y64313
X97793Y6934
X94973Y3454
X95456Y15697
X105133Y3454
X85956Y4597
X83086Y17831
X83035Y15011
X85855Y12929
X100053Y29591
X93729Y27508
X94897Y37440
X95989Y45339
X98402Y43510
X97666Y32842
X98885Y25425
X96015Y26187
X96015Y22403
X93424Y43510
X97869Y24359
X93906Y40589
X98047Y37414
X94084Y6121
X89157Y24130
X94135Y24384
X96015Y38100
X102873Y9923
X94237Y12192
X98910Y26822
X87150Y3327
X97869Y23546
X100079Y23368
X94237Y7112
X96777Y6858
X95507Y6858
X14912Y116741
X32515Y72037
X17224Y129416
X20043Y132895
X19561Y120653
X9883Y132895
X29060Y131752
X31930Y118519
X31981Y121338
X29162Y123421
X14963Y106759
X21288Y108842
X20119Y98910
X19027Y91011
X16614Y92840
X17351Y103508
X16132Y110924
X19002Y110162
X19002Y113947
X21593Y92840
X17148Y111991
X21110Y95761
X16970Y98936
X20932Y130228
X25860Y112220
X20881Y111966
X19002Y98250
X12144Y126426
X20780Y124158
X16106Y109527
X27866Y133022
X17148Y112804
X14938Y112982
X20780Y129238
X18240Y129492
X19510Y129492
X53419Y116741
X71021Y72037
X55730Y129416
X58550Y132895
X58067Y120653
X48390Y132895
X67567Y131752
X70437Y118519
X70488Y121338
X67668Y123421
X53470Y106759
X59794Y108842
X58626Y98910
X57534Y91011
X55121Y92840
X55857Y103508
X54638Y110924
X57508Y110162
X57508Y113947
X60099Y92840
X55654Y111991
X59616Y95761
X55476Y98936
X59439Y130228
X64366Y112220
X59388Y111966
X57508Y98250
X50650Y126426
X59286Y124158
X54613Y109527
X66373Y133022
X55654Y112804
X53444Y112982
X59286Y129238
X56746Y129492
X58016Y129492
X91928Y116741
X109530Y72037
X94239Y129416
X97058Y132895
X96576Y120653
X86898Y132895
X106075Y131752
X108946Y118519
X108996Y121338
X106177Y123421
X91978Y106759
X98303Y108842
X97135Y98910
X96042Y91011
X93629Y92840
X94366Y103508
X93147Y110924
X96017Y110162
X96017Y113947
X98608Y92840
X94163Y111991
X98125Y95761
X93985Y98936
X97947Y130228
X102875Y112220
X97897Y111966
X96017Y98250
X89159Y126426
X97795Y124158
X93121Y109527
X104882Y133022
X94163Y112804
X91953Y112982
X97795Y129238
X95255Y129492
X96525Y129492
X36999Y46100
X36999Y41900
X35699Y44000
X999Y41900
X999Y46100
X2299Y44000
X75508Y46100
X75508Y41900
X74208Y44000
X39508Y41900
X39508Y46100
X40808Y44000
X114015Y46100
X114015Y41900
X112715Y44000
X78015Y41900
X78015Y46100
X79315Y44000
X1002Y90250
X1002Y94450
X2302Y92350
X37002Y94450
X37002Y90250
X35702Y92350
X39508Y90250
X39508Y94450
X40808Y92350
X75508Y94450
X75508Y90250
X74208Y92350
X78017Y90250
X78017Y94450
X79317Y92350
X114017Y94450
X114017Y90250
X112717Y92350
M30