G04 EAGLE Gerber RS-274X export*
G75*
%MOMM*%
%FSLAX34Y34*%
%LPD*%
%INSoldermask Bottom*%
%IPPOS*%
%AMOC8*
5,1,8,0,0,1.08239X$1,22.5*%
G01*
%ADD10C,0.228959*%
%ADD11C,0.736600*%
%ADD12C,1.127000*%
%ADD13C,1.270000*%
%ADD14C,1.627000*%


D10*
X281232Y6010D02*
X278752Y6010D01*
X278752Y24490D01*
X281232Y24490D01*
X281232Y6010D01*
X281232Y8185D02*
X278752Y8185D01*
X278752Y10360D02*
X281232Y10360D01*
X281232Y12535D02*
X278752Y12535D01*
X278752Y14710D02*
X281232Y14710D01*
X281232Y16885D02*
X278752Y16885D01*
X278752Y19060D02*
X281232Y19060D01*
X281232Y21235D02*
X278752Y21235D01*
X278752Y23410D02*
X281232Y23410D01*
X276232Y6010D02*
X273752Y6010D01*
X273752Y24490D01*
X276232Y24490D01*
X276232Y6010D01*
X276232Y8185D02*
X273752Y8185D01*
X273752Y10360D02*
X276232Y10360D01*
X276232Y12535D02*
X273752Y12535D01*
X273752Y14710D02*
X276232Y14710D01*
X276232Y16885D02*
X273752Y16885D01*
X273752Y19060D02*
X276232Y19060D01*
X276232Y21235D02*
X273752Y21235D01*
X273752Y23410D02*
X276232Y23410D01*
X271232Y6010D02*
X268752Y6010D01*
X268752Y24490D01*
X271232Y24490D01*
X271232Y6010D01*
X271232Y8185D02*
X268752Y8185D01*
X268752Y10360D02*
X271232Y10360D01*
X271232Y12535D02*
X268752Y12535D01*
X268752Y14710D02*
X271232Y14710D01*
X271232Y16885D02*
X268752Y16885D01*
X268752Y19060D02*
X271232Y19060D01*
X271232Y21235D02*
X268752Y21235D01*
X268752Y23410D02*
X271232Y23410D01*
X266232Y6010D02*
X263752Y6010D01*
X263752Y24490D01*
X266232Y24490D01*
X266232Y6010D01*
X266232Y8185D02*
X263752Y8185D01*
X263752Y10360D02*
X266232Y10360D01*
X266232Y12535D02*
X263752Y12535D01*
X263752Y14710D02*
X266232Y14710D01*
X266232Y16885D02*
X263752Y16885D01*
X263752Y19060D02*
X266232Y19060D01*
X266232Y21235D02*
X263752Y21235D01*
X263752Y23410D02*
X266232Y23410D01*
X261232Y6010D02*
X258752Y6010D01*
X258752Y24490D01*
X261232Y24490D01*
X261232Y6010D01*
X261232Y8185D02*
X258752Y8185D01*
X258752Y10360D02*
X261232Y10360D01*
X261232Y12535D02*
X258752Y12535D01*
X258752Y14710D02*
X261232Y14710D01*
X261232Y16885D02*
X258752Y16885D01*
X258752Y19060D02*
X261232Y19060D01*
X261232Y21235D02*
X258752Y21235D01*
X258752Y23410D02*
X261232Y23410D01*
X256232Y6010D02*
X253752Y6010D01*
X253752Y24490D01*
X256232Y24490D01*
X256232Y6010D01*
X256232Y8185D02*
X253752Y8185D01*
X253752Y10360D02*
X256232Y10360D01*
X256232Y12535D02*
X253752Y12535D01*
X253752Y14710D02*
X256232Y14710D01*
X256232Y16885D02*
X253752Y16885D01*
X253752Y19060D02*
X256232Y19060D01*
X256232Y21235D02*
X253752Y21235D01*
X253752Y23410D02*
X256232Y23410D01*
X251232Y6010D02*
X248752Y6010D01*
X248752Y24490D01*
X251232Y24490D01*
X251232Y6010D01*
X251232Y8185D02*
X248752Y8185D01*
X248752Y10360D02*
X251232Y10360D01*
X251232Y12535D02*
X248752Y12535D01*
X248752Y14710D02*
X251232Y14710D01*
X251232Y16885D02*
X248752Y16885D01*
X248752Y19060D02*
X251232Y19060D01*
X251232Y21235D02*
X248752Y21235D01*
X248752Y23410D02*
X251232Y23410D01*
X246232Y6010D02*
X243752Y6010D01*
X243752Y24490D01*
X246232Y24490D01*
X246232Y6010D01*
X246232Y8185D02*
X243752Y8185D01*
X243752Y10360D02*
X246232Y10360D01*
X246232Y12535D02*
X243752Y12535D01*
X243752Y14710D02*
X246232Y14710D01*
X246232Y16885D02*
X243752Y16885D01*
X243752Y19060D02*
X246232Y19060D01*
X246232Y21235D02*
X243752Y21235D01*
X243752Y23410D02*
X246232Y23410D01*
X241232Y6010D02*
X238752Y6010D01*
X238752Y24490D01*
X241232Y24490D01*
X241232Y6010D01*
X241232Y8185D02*
X238752Y8185D01*
X238752Y10360D02*
X241232Y10360D01*
X241232Y12535D02*
X238752Y12535D01*
X238752Y14710D02*
X241232Y14710D01*
X241232Y16885D02*
X238752Y16885D01*
X238752Y19060D02*
X241232Y19060D01*
X241232Y21235D02*
X238752Y21235D01*
X238752Y23410D02*
X241232Y23410D01*
X236232Y6010D02*
X233752Y6010D01*
X233752Y24490D01*
X236232Y24490D01*
X236232Y6010D01*
X236232Y8185D02*
X233752Y8185D01*
X233752Y10360D02*
X236232Y10360D01*
X236232Y12535D02*
X233752Y12535D01*
X233752Y14710D02*
X236232Y14710D01*
X236232Y16885D02*
X233752Y16885D01*
X233752Y19060D02*
X236232Y19060D01*
X236232Y21235D02*
X233752Y21235D01*
X233752Y23410D02*
X236232Y23410D01*
X231232Y6010D02*
X228752Y6010D01*
X228752Y24490D01*
X231232Y24490D01*
X231232Y6010D01*
X231232Y8185D02*
X228752Y8185D01*
X228752Y10360D02*
X231232Y10360D01*
X231232Y12535D02*
X228752Y12535D01*
X228752Y14710D02*
X231232Y14710D01*
X231232Y16885D02*
X228752Y16885D01*
X228752Y19060D02*
X231232Y19060D01*
X231232Y21235D02*
X228752Y21235D01*
X228752Y23410D02*
X231232Y23410D01*
X206232Y6010D02*
X203752Y6010D01*
X203752Y24490D01*
X206232Y24490D01*
X206232Y6010D01*
X206232Y8185D02*
X203752Y8185D01*
X203752Y10360D02*
X206232Y10360D01*
X206232Y12535D02*
X203752Y12535D01*
X203752Y14710D02*
X206232Y14710D01*
X206232Y16885D02*
X203752Y16885D01*
X203752Y19060D02*
X206232Y19060D01*
X206232Y21235D02*
X203752Y21235D01*
X203752Y23410D02*
X206232Y23410D01*
X201232Y6010D02*
X198752Y6010D01*
X198752Y24490D01*
X201232Y24490D01*
X201232Y6010D01*
X201232Y8185D02*
X198752Y8185D01*
X198752Y10360D02*
X201232Y10360D01*
X201232Y12535D02*
X198752Y12535D01*
X198752Y14710D02*
X201232Y14710D01*
X201232Y16885D02*
X198752Y16885D01*
X198752Y19060D02*
X201232Y19060D01*
X201232Y21235D02*
X198752Y21235D01*
X198752Y23410D02*
X201232Y23410D01*
X196232Y6010D02*
X193752Y6010D01*
X193752Y24490D01*
X196232Y24490D01*
X196232Y6010D01*
X196232Y8185D02*
X193752Y8185D01*
X193752Y10360D02*
X196232Y10360D01*
X196232Y12535D02*
X193752Y12535D01*
X193752Y14710D02*
X196232Y14710D01*
X196232Y16885D02*
X193752Y16885D01*
X193752Y19060D02*
X196232Y19060D01*
X196232Y21235D02*
X193752Y21235D01*
X193752Y23410D02*
X196232Y23410D01*
X191232Y6010D02*
X188752Y6010D01*
X188752Y24490D01*
X191232Y24490D01*
X191232Y6010D01*
X191232Y8185D02*
X188752Y8185D01*
X188752Y10360D02*
X191232Y10360D01*
X191232Y12535D02*
X188752Y12535D01*
X188752Y14710D02*
X191232Y14710D01*
X191232Y16885D02*
X188752Y16885D01*
X188752Y19060D02*
X191232Y19060D01*
X191232Y21235D02*
X188752Y21235D01*
X188752Y23410D02*
X191232Y23410D01*
X186232Y6010D02*
X183752Y6010D01*
X183752Y24490D01*
X186232Y24490D01*
X186232Y6010D01*
X186232Y8185D02*
X183752Y8185D01*
X183752Y10360D02*
X186232Y10360D01*
X186232Y12535D02*
X183752Y12535D01*
X183752Y14710D02*
X186232Y14710D01*
X186232Y16885D02*
X183752Y16885D01*
X183752Y19060D02*
X186232Y19060D01*
X186232Y21235D02*
X183752Y21235D01*
X183752Y23410D02*
X186232Y23410D01*
X181232Y6010D02*
X178752Y6010D01*
X178752Y24490D01*
X181232Y24490D01*
X181232Y6010D01*
X181232Y8185D02*
X178752Y8185D01*
X178752Y10360D02*
X181232Y10360D01*
X181232Y12535D02*
X178752Y12535D01*
X178752Y14710D02*
X181232Y14710D01*
X181232Y16885D02*
X178752Y16885D01*
X178752Y19060D02*
X181232Y19060D01*
X181232Y21235D02*
X178752Y21235D01*
X178752Y23410D02*
X181232Y23410D01*
X176232Y6010D02*
X173752Y6010D01*
X173752Y24490D01*
X176232Y24490D01*
X176232Y6010D01*
X176232Y8185D02*
X173752Y8185D01*
X173752Y10360D02*
X176232Y10360D01*
X176232Y12535D02*
X173752Y12535D01*
X173752Y14710D02*
X176232Y14710D01*
X176232Y16885D02*
X173752Y16885D01*
X173752Y19060D02*
X176232Y19060D01*
X176232Y21235D02*
X173752Y21235D01*
X173752Y23410D02*
X176232Y23410D01*
X171232Y6010D02*
X168752Y6010D01*
X168752Y24490D01*
X171232Y24490D01*
X171232Y6010D01*
X171232Y8185D02*
X168752Y8185D01*
X168752Y10360D02*
X171232Y10360D01*
X171232Y12535D02*
X168752Y12535D01*
X168752Y14710D02*
X171232Y14710D01*
X171232Y16885D02*
X168752Y16885D01*
X168752Y19060D02*
X171232Y19060D01*
X171232Y21235D02*
X168752Y21235D01*
X168752Y23410D02*
X171232Y23410D01*
X166232Y6010D02*
X163752Y6010D01*
X163752Y24490D01*
X166232Y24490D01*
X166232Y6010D01*
X166232Y8185D02*
X163752Y8185D01*
X163752Y10360D02*
X166232Y10360D01*
X166232Y12535D02*
X163752Y12535D01*
X163752Y14710D02*
X166232Y14710D01*
X166232Y16885D02*
X163752Y16885D01*
X163752Y19060D02*
X166232Y19060D01*
X166232Y21235D02*
X163752Y21235D01*
X163752Y23410D02*
X166232Y23410D01*
X161232Y6010D02*
X158752Y6010D01*
X158752Y24490D01*
X161232Y24490D01*
X161232Y6010D01*
X161232Y8185D02*
X158752Y8185D01*
X158752Y10360D02*
X161232Y10360D01*
X161232Y12535D02*
X158752Y12535D01*
X158752Y14710D02*
X161232Y14710D01*
X161232Y16885D02*
X158752Y16885D01*
X158752Y19060D02*
X161232Y19060D01*
X161232Y21235D02*
X158752Y21235D01*
X158752Y23410D02*
X161232Y23410D01*
X156232Y6010D02*
X153752Y6010D01*
X153752Y24490D01*
X156232Y24490D01*
X156232Y6010D01*
X156232Y8185D02*
X153752Y8185D01*
X153752Y10360D02*
X156232Y10360D01*
X156232Y12535D02*
X153752Y12535D01*
X153752Y14710D02*
X156232Y14710D01*
X156232Y16885D02*
X153752Y16885D01*
X153752Y19060D02*
X156232Y19060D01*
X156232Y21235D02*
X153752Y21235D01*
X153752Y23410D02*
X156232Y23410D01*
X151232Y6010D02*
X148752Y6010D01*
X148752Y24490D01*
X151232Y24490D01*
X151232Y6010D01*
X151232Y8185D02*
X148752Y8185D01*
X148752Y10360D02*
X151232Y10360D01*
X151232Y12535D02*
X148752Y12535D01*
X148752Y14710D02*
X151232Y14710D01*
X151232Y16885D02*
X148752Y16885D01*
X148752Y19060D02*
X151232Y19060D01*
X151232Y21235D02*
X148752Y21235D01*
X148752Y23410D02*
X151232Y23410D01*
X146232Y6010D02*
X143752Y6010D01*
X143752Y24490D01*
X146232Y24490D01*
X146232Y6010D01*
X146232Y8185D02*
X143752Y8185D01*
X143752Y10360D02*
X146232Y10360D01*
X146232Y12535D02*
X143752Y12535D01*
X143752Y14710D02*
X146232Y14710D01*
X146232Y16885D02*
X143752Y16885D01*
X143752Y19060D02*
X146232Y19060D01*
X146232Y21235D02*
X143752Y21235D01*
X143752Y23410D02*
X146232Y23410D01*
X141232Y6010D02*
X138752Y6010D01*
X138752Y24490D01*
X141232Y24490D01*
X141232Y6010D01*
X141232Y8185D02*
X138752Y8185D01*
X138752Y10360D02*
X141232Y10360D01*
X141232Y12535D02*
X138752Y12535D01*
X138752Y14710D02*
X141232Y14710D01*
X141232Y16885D02*
X138752Y16885D01*
X138752Y19060D02*
X141232Y19060D01*
X141232Y21235D02*
X138752Y21235D01*
X138752Y23410D02*
X141232Y23410D01*
X136232Y6010D02*
X133752Y6010D01*
X133752Y24490D01*
X136232Y24490D01*
X136232Y6010D01*
X136232Y8185D02*
X133752Y8185D01*
X133752Y10360D02*
X136232Y10360D01*
X136232Y12535D02*
X133752Y12535D01*
X133752Y14710D02*
X136232Y14710D01*
X136232Y16885D02*
X133752Y16885D01*
X133752Y19060D02*
X136232Y19060D01*
X136232Y21235D02*
X133752Y21235D01*
X133752Y23410D02*
X136232Y23410D01*
X131232Y6010D02*
X128752Y6010D01*
X128752Y24490D01*
X131232Y24490D01*
X131232Y6010D01*
X131232Y8185D02*
X128752Y8185D01*
X128752Y10360D02*
X131232Y10360D01*
X131232Y12535D02*
X128752Y12535D01*
X128752Y14710D02*
X131232Y14710D01*
X131232Y16885D02*
X128752Y16885D01*
X128752Y19060D02*
X131232Y19060D01*
X131232Y21235D02*
X128752Y21235D01*
X128752Y23410D02*
X131232Y23410D01*
X126232Y6010D02*
X123752Y6010D01*
X123752Y24490D01*
X126232Y24490D01*
X126232Y6010D01*
X126232Y8185D02*
X123752Y8185D01*
X123752Y10360D02*
X126232Y10360D01*
X126232Y12535D02*
X123752Y12535D01*
X123752Y14710D02*
X126232Y14710D01*
X126232Y16885D02*
X123752Y16885D01*
X123752Y19060D02*
X126232Y19060D01*
X126232Y21235D02*
X123752Y21235D01*
X123752Y23410D02*
X126232Y23410D01*
X121232Y6010D02*
X118752Y6010D01*
X118752Y24490D01*
X121232Y24490D01*
X121232Y6010D01*
X121232Y8185D02*
X118752Y8185D01*
X118752Y10360D02*
X121232Y10360D01*
X121232Y12535D02*
X118752Y12535D01*
X118752Y14710D02*
X121232Y14710D01*
X121232Y16885D02*
X118752Y16885D01*
X118752Y19060D02*
X121232Y19060D01*
X121232Y21235D02*
X118752Y21235D01*
X118752Y23410D02*
X121232Y23410D01*
X116232Y6010D02*
X113752Y6010D01*
X113752Y24490D01*
X116232Y24490D01*
X116232Y6010D01*
X116232Y8185D02*
X113752Y8185D01*
X113752Y10360D02*
X116232Y10360D01*
X116232Y12535D02*
X113752Y12535D01*
X113752Y14710D02*
X116232Y14710D01*
X116232Y16885D02*
X113752Y16885D01*
X113752Y19060D02*
X116232Y19060D01*
X116232Y21235D02*
X113752Y21235D01*
X113752Y23410D02*
X116232Y23410D01*
X111232Y6010D02*
X108752Y6010D01*
X108752Y24490D01*
X111232Y24490D01*
X111232Y6010D01*
X111232Y8185D02*
X108752Y8185D01*
X108752Y10360D02*
X111232Y10360D01*
X111232Y12535D02*
X108752Y12535D01*
X108752Y14710D02*
X111232Y14710D01*
X111232Y16885D02*
X108752Y16885D01*
X108752Y19060D02*
X111232Y19060D01*
X111232Y21235D02*
X108752Y21235D01*
X108752Y23410D02*
X111232Y23410D01*
X106232Y6010D02*
X103752Y6010D01*
X103752Y24490D01*
X106232Y24490D01*
X106232Y6010D01*
X106232Y8185D02*
X103752Y8185D01*
X103752Y10360D02*
X106232Y10360D01*
X106232Y12535D02*
X103752Y12535D01*
X103752Y14710D02*
X106232Y14710D01*
X106232Y16885D02*
X103752Y16885D01*
X103752Y19060D02*
X106232Y19060D01*
X106232Y21235D02*
X103752Y21235D01*
X103752Y23410D02*
X106232Y23410D01*
X101232Y6010D02*
X98752Y6010D01*
X98752Y24490D01*
X101232Y24490D01*
X101232Y6010D01*
X101232Y8185D02*
X98752Y8185D01*
X98752Y10360D02*
X101232Y10360D01*
X101232Y12535D02*
X98752Y12535D01*
X98752Y14710D02*
X101232Y14710D01*
X101232Y16885D02*
X98752Y16885D01*
X98752Y19060D02*
X101232Y19060D01*
X101232Y21235D02*
X98752Y21235D01*
X98752Y23410D02*
X101232Y23410D01*
D11*
X369992Y461000D03*
X369992Y419000D03*
X356992Y440000D03*
X9992Y419000D03*
X9992Y461000D03*
X22992Y440000D03*
D12*
X18542Y107950D03*
X347472Y488950D03*
D10*
X663841Y6010D02*
X666321Y6010D01*
X663841Y6010D02*
X663841Y24490D01*
X666321Y24490D01*
X666321Y6010D01*
X666321Y8185D02*
X663841Y8185D01*
X663841Y10360D02*
X666321Y10360D01*
X666321Y12535D02*
X663841Y12535D01*
X663841Y14710D02*
X666321Y14710D01*
X666321Y16885D02*
X663841Y16885D01*
X663841Y19060D02*
X666321Y19060D01*
X666321Y21235D02*
X663841Y21235D01*
X663841Y23410D02*
X666321Y23410D01*
X661321Y6010D02*
X658841Y6010D01*
X658841Y24490D01*
X661321Y24490D01*
X661321Y6010D01*
X661321Y8185D02*
X658841Y8185D01*
X658841Y10360D02*
X661321Y10360D01*
X661321Y12535D02*
X658841Y12535D01*
X658841Y14710D02*
X661321Y14710D01*
X661321Y16885D02*
X658841Y16885D01*
X658841Y19060D02*
X661321Y19060D01*
X661321Y21235D02*
X658841Y21235D01*
X658841Y23410D02*
X661321Y23410D01*
X656321Y6010D02*
X653841Y6010D01*
X653841Y24490D01*
X656321Y24490D01*
X656321Y6010D01*
X656321Y8185D02*
X653841Y8185D01*
X653841Y10360D02*
X656321Y10360D01*
X656321Y12535D02*
X653841Y12535D01*
X653841Y14710D02*
X656321Y14710D01*
X656321Y16885D02*
X653841Y16885D01*
X653841Y19060D02*
X656321Y19060D01*
X656321Y21235D02*
X653841Y21235D01*
X653841Y23410D02*
X656321Y23410D01*
X651321Y6010D02*
X648841Y6010D01*
X648841Y24490D01*
X651321Y24490D01*
X651321Y6010D01*
X651321Y8185D02*
X648841Y8185D01*
X648841Y10360D02*
X651321Y10360D01*
X651321Y12535D02*
X648841Y12535D01*
X648841Y14710D02*
X651321Y14710D01*
X651321Y16885D02*
X648841Y16885D01*
X648841Y19060D02*
X651321Y19060D01*
X651321Y21235D02*
X648841Y21235D01*
X648841Y23410D02*
X651321Y23410D01*
X646321Y6010D02*
X643841Y6010D01*
X643841Y24490D01*
X646321Y24490D01*
X646321Y6010D01*
X646321Y8185D02*
X643841Y8185D01*
X643841Y10360D02*
X646321Y10360D01*
X646321Y12535D02*
X643841Y12535D01*
X643841Y14710D02*
X646321Y14710D01*
X646321Y16885D02*
X643841Y16885D01*
X643841Y19060D02*
X646321Y19060D01*
X646321Y21235D02*
X643841Y21235D01*
X643841Y23410D02*
X646321Y23410D01*
X641321Y6010D02*
X638841Y6010D01*
X638841Y24490D01*
X641321Y24490D01*
X641321Y6010D01*
X641321Y8185D02*
X638841Y8185D01*
X638841Y10360D02*
X641321Y10360D01*
X641321Y12535D02*
X638841Y12535D01*
X638841Y14710D02*
X641321Y14710D01*
X641321Y16885D02*
X638841Y16885D01*
X638841Y19060D02*
X641321Y19060D01*
X641321Y21235D02*
X638841Y21235D01*
X638841Y23410D02*
X641321Y23410D01*
X636321Y6010D02*
X633841Y6010D01*
X633841Y24490D01*
X636321Y24490D01*
X636321Y6010D01*
X636321Y8185D02*
X633841Y8185D01*
X633841Y10360D02*
X636321Y10360D01*
X636321Y12535D02*
X633841Y12535D01*
X633841Y14710D02*
X636321Y14710D01*
X636321Y16885D02*
X633841Y16885D01*
X633841Y19060D02*
X636321Y19060D01*
X636321Y21235D02*
X633841Y21235D01*
X633841Y23410D02*
X636321Y23410D01*
X631321Y6010D02*
X628841Y6010D01*
X628841Y24490D01*
X631321Y24490D01*
X631321Y6010D01*
X631321Y8185D02*
X628841Y8185D01*
X628841Y10360D02*
X631321Y10360D01*
X631321Y12535D02*
X628841Y12535D01*
X628841Y14710D02*
X631321Y14710D01*
X631321Y16885D02*
X628841Y16885D01*
X628841Y19060D02*
X631321Y19060D01*
X631321Y21235D02*
X628841Y21235D01*
X628841Y23410D02*
X631321Y23410D01*
X626321Y6010D02*
X623841Y6010D01*
X623841Y24490D01*
X626321Y24490D01*
X626321Y6010D01*
X626321Y8185D02*
X623841Y8185D01*
X623841Y10360D02*
X626321Y10360D01*
X626321Y12535D02*
X623841Y12535D01*
X623841Y14710D02*
X626321Y14710D01*
X626321Y16885D02*
X623841Y16885D01*
X623841Y19060D02*
X626321Y19060D01*
X626321Y21235D02*
X623841Y21235D01*
X623841Y23410D02*
X626321Y23410D01*
X621321Y6010D02*
X618841Y6010D01*
X618841Y24490D01*
X621321Y24490D01*
X621321Y6010D01*
X621321Y8185D02*
X618841Y8185D01*
X618841Y10360D02*
X621321Y10360D01*
X621321Y12535D02*
X618841Y12535D01*
X618841Y14710D02*
X621321Y14710D01*
X621321Y16885D02*
X618841Y16885D01*
X618841Y19060D02*
X621321Y19060D01*
X621321Y21235D02*
X618841Y21235D01*
X618841Y23410D02*
X621321Y23410D01*
X616321Y6010D02*
X613841Y6010D01*
X613841Y24490D01*
X616321Y24490D01*
X616321Y6010D01*
X616321Y8185D02*
X613841Y8185D01*
X613841Y10360D02*
X616321Y10360D01*
X616321Y12535D02*
X613841Y12535D01*
X613841Y14710D02*
X616321Y14710D01*
X616321Y16885D02*
X613841Y16885D01*
X613841Y19060D02*
X616321Y19060D01*
X616321Y21235D02*
X613841Y21235D01*
X613841Y23410D02*
X616321Y23410D01*
X591321Y6010D02*
X588841Y6010D01*
X588841Y24490D01*
X591321Y24490D01*
X591321Y6010D01*
X591321Y8185D02*
X588841Y8185D01*
X588841Y10360D02*
X591321Y10360D01*
X591321Y12535D02*
X588841Y12535D01*
X588841Y14710D02*
X591321Y14710D01*
X591321Y16885D02*
X588841Y16885D01*
X588841Y19060D02*
X591321Y19060D01*
X591321Y21235D02*
X588841Y21235D01*
X588841Y23410D02*
X591321Y23410D01*
X586321Y6010D02*
X583841Y6010D01*
X583841Y24490D01*
X586321Y24490D01*
X586321Y6010D01*
X586321Y8185D02*
X583841Y8185D01*
X583841Y10360D02*
X586321Y10360D01*
X586321Y12535D02*
X583841Y12535D01*
X583841Y14710D02*
X586321Y14710D01*
X586321Y16885D02*
X583841Y16885D01*
X583841Y19060D02*
X586321Y19060D01*
X586321Y21235D02*
X583841Y21235D01*
X583841Y23410D02*
X586321Y23410D01*
X581321Y6010D02*
X578841Y6010D01*
X578841Y24490D01*
X581321Y24490D01*
X581321Y6010D01*
X581321Y8185D02*
X578841Y8185D01*
X578841Y10360D02*
X581321Y10360D01*
X581321Y12535D02*
X578841Y12535D01*
X578841Y14710D02*
X581321Y14710D01*
X581321Y16885D02*
X578841Y16885D01*
X578841Y19060D02*
X581321Y19060D01*
X581321Y21235D02*
X578841Y21235D01*
X578841Y23410D02*
X581321Y23410D01*
X576321Y6010D02*
X573841Y6010D01*
X573841Y24490D01*
X576321Y24490D01*
X576321Y6010D01*
X576321Y8185D02*
X573841Y8185D01*
X573841Y10360D02*
X576321Y10360D01*
X576321Y12535D02*
X573841Y12535D01*
X573841Y14710D02*
X576321Y14710D01*
X576321Y16885D02*
X573841Y16885D01*
X573841Y19060D02*
X576321Y19060D01*
X576321Y21235D02*
X573841Y21235D01*
X573841Y23410D02*
X576321Y23410D01*
X571321Y6010D02*
X568841Y6010D01*
X568841Y24490D01*
X571321Y24490D01*
X571321Y6010D01*
X571321Y8185D02*
X568841Y8185D01*
X568841Y10360D02*
X571321Y10360D01*
X571321Y12535D02*
X568841Y12535D01*
X568841Y14710D02*
X571321Y14710D01*
X571321Y16885D02*
X568841Y16885D01*
X568841Y19060D02*
X571321Y19060D01*
X571321Y21235D02*
X568841Y21235D01*
X568841Y23410D02*
X571321Y23410D01*
X566321Y6010D02*
X563841Y6010D01*
X563841Y24490D01*
X566321Y24490D01*
X566321Y6010D01*
X566321Y8185D02*
X563841Y8185D01*
X563841Y10360D02*
X566321Y10360D01*
X566321Y12535D02*
X563841Y12535D01*
X563841Y14710D02*
X566321Y14710D01*
X566321Y16885D02*
X563841Y16885D01*
X563841Y19060D02*
X566321Y19060D01*
X566321Y21235D02*
X563841Y21235D01*
X563841Y23410D02*
X566321Y23410D01*
X561321Y6010D02*
X558841Y6010D01*
X558841Y24490D01*
X561321Y24490D01*
X561321Y6010D01*
X561321Y8185D02*
X558841Y8185D01*
X558841Y10360D02*
X561321Y10360D01*
X561321Y12535D02*
X558841Y12535D01*
X558841Y14710D02*
X561321Y14710D01*
X561321Y16885D02*
X558841Y16885D01*
X558841Y19060D02*
X561321Y19060D01*
X561321Y21235D02*
X558841Y21235D01*
X558841Y23410D02*
X561321Y23410D01*
X556321Y6010D02*
X553841Y6010D01*
X553841Y24490D01*
X556321Y24490D01*
X556321Y6010D01*
X556321Y8185D02*
X553841Y8185D01*
X553841Y10360D02*
X556321Y10360D01*
X556321Y12535D02*
X553841Y12535D01*
X553841Y14710D02*
X556321Y14710D01*
X556321Y16885D02*
X553841Y16885D01*
X553841Y19060D02*
X556321Y19060D01*
X556321Y21235D02*
X553841Y21235D01*
X553841Y23410D02*
X556321Y23410D01*
X551321Y6010D02*
X548841Y6010D01*
X548841Y24490D01*
X551321Y24490D01*
X551321Y6010D01*
X551321Y8185D02*
X548841Y8185D01*
X548841Y10360D02*
X551321Y10360D01*
X551321Y12535D02*
X548841Y12535D01*
X548841Y14710D02*
X551321Y14710D01*
X551321Y16885D02*
X548841Y16885D01*
X548841Y19060D02*
X551321Y19060D01*
X551321Y21235D02*
X548841Y21235D01*
X548841Y23410D02*
X551321Y23410D01*
X546321Y6010D02*
X543841Y6010D01*
X543841Y24490D01*
X546321Y24490D01*
X546321Y6010D01*
X546321Y8185D02*
X543841Y8185D01*
X543841Y10360D02*
X546321Y10360D01*
X546321Y12535D02*
X543841Y12535D01*
X543841Y14710D02*
X546321Y14710D01*
X546321Y16885D02*
X543841Y16885D01*
X543841Y19060D02*
X546321Y19060D01*
X546321Y21235D02*
X543841Y21235D01*
X543841Y23410D02*
X546321Y23410D01*
X541321Y6010D02*
X538841Y6010D01*
X538841Y24490D01*
X541321Y24490D01*
X541321Y6010D01*
X541321Y8185D02*
X538841Y8185D01*
X538841Y10360D02*
X541321Y10360D01*
X541321Y12535D02*
X538841Y12535D01*
X538841Y14710D02*
X541321Y14710D01*
X541321Y16885D02*
X538841Y16885D01*
X538841Y19060D02*
X541321Y19060D01*
X541321Y21235D02*
X538841Y21235D01*
X538841Y23410D02*
X541321Y23410D01*
X536321Y6010D02*
X533841Y6010D01*
X533841Y24490D01*
X536321Y24490D01*
X536321Y6010D01*
X536321Y8185D02*
X533841Y8185D01*
X533841Y10360D02*
X536321Y10360D01*
X536321Y12535D02*
X533841Y12535D01*
X533841Y14710D02*
X536321Y14710D01*
X536321Y16885D02*
X533841Y16885D01*
X533841Y19060D02*
X536321Y19060D01*
X536321Y21235D02*
X533841Y21235D01*
X533841Y23410D02*
X536321Y23410D01*
X531321Y6010D02*
X528841Y6010D01*
X528841Y24490D01*
X531321Y24490D01*
X531321Y6010D01*
X531321Y8185D02*
X528841Y8185D01*
X528841Y10360D02*
X531321Y10360D01*
X531321Y12535D02*
X528841Y12535D01*
X528841Y14710D02*
X531321Y14710D01*
X531321Y16885D02*
X528841Y16885D01*
X528841Y19060D02*
X531321Y19060D01*
X531321Y21235D02*
X528841Y21235D01*
X528841Y23410D02*
X531321Y23410D01*
X526321Y6010D02*
X523841Y6010D01*
X523841Y24490D01*
X526321Y24490D01*
X526321Y6010D01*
X526321Y8185D02*
X523841Y8185D01*
X523841Y10360D02*
X526321Y10360D01*
X526321Y12535D02*
X523841Y12535D01*
X523841Y14710D02*
X526321Y14710D01*
X526321Y16885D02*
X523841Y16885D01*
X523841Y19060D02*
X526321Y19060D01*
X526321Y21235D02*
X523841Y21235D01*
X523841Y23410D02*
X526321Y23410D01*
X521321Y6010D02*
X518841Y6010D01*
X518841Y24490D01*
X521321Y24490D01*
X521321Y6010D01*
X521321Y8185D02*
X518841Y8185D01*
X518841Y10360D02*
X521321Y10360D01*
X521321Y12535D02*
X518841Y12535D01*
X518841Y14710D02*
X521321Y14710D01*
X521321Y16885D02*
X518841Y16885D01*
X518841Y19060D02*
X521321Y19060D01*
X521321Y21235D02*
X518841Y21235D01*
X518841Y23410D02*
X521321Y23410D01*
X516321Y6010D02*
X513841Y6010D01*
X513841Y24490D01*
X516321Y24490D01*
X516321Y6010D01*
X516321Y8185D02*
X513841Y8185D01*
X513841Y10360D02*
X516321Y10360D01*
X516321Y12535D02*
X513841Y12535D01*
X513841Y14710D02*
X516321Y14710D01*
X516321Y16885D02*
X513841Y16885D01*
X513841Y19060D02*
X516321Y19060D01*
X516321Y21235D02*
X513841Y21235D01*
X513841Y23410D02*
X516321Y23410D01*
X511321Y6010D02*
X508841Y6010D01*
X508841Y24490D01*
X511321Y24490D01*
X511321Y6010D01*
X511321Y8185D02*
X508841Y8185D01*
X508841Y10360D02*
X511321Y10360D01*
X511321Y12535D02*
X508841Y12535D01*
X508841Y14710D02*
X511321Y14710D01*
X511321Y16885D02*
X508841Y16885D01*
X508841Y19060D02*
X511321Y19060D01*
X511321Y21235D02*
X508841Y21235D01*
X508841Y23410D02*
X511321Y23410D01*
X506321Y6010D02*
X503841Y6010D01*
X503841Y24490D01*
X506321Y24490D01*
X506321Y6010D01*
X506321Y8185D02*
X503841Y8185D01*
X503841Y10360D02*
X506321Y10360D01*
X506321Y12535D02*
X503841Y12535D01*
X503841Y14710D02*
X506321Y14710D01*
X506321Y16885D02*
X503841Y16885D01*
X503841Y19060D02*
X506321Y19060D01*
X506321Y21235D02*
X503841Y21235D01*
X503841Y23410D02*
X506321Y23410D01*
X501321Y6010D02*
X498841Y6010D01*
X498841Y24490D01*
X501321Y24490D01*
X501321Y6010D01*
X501321Y8185D02*
X498841Y8185D01*
X498841Y10360D02*
X501321Y10360D01*
X501321Y12535D02*
X498841Y12535D01*
X498841Y14710D02*
X501321Y14710D01*
X501321Y16885D02*
X498841Y16885D01*
X498841Y19060D02*
X501321Y19060D01*
X501321Y21235D02*
X498841Y21235D01*
X498841Y23410D02*
X501321Y23410D01*
X496321Y6010D02*
X493841Y6010D01*
X493841Y24490D01*
X496321Y24490D01*
X496321Y6010D01*
X496321Y8185D02*
X493841Y8185D01*
X493841Y10360D02*
X496321Y10360D01*
X496321Y12535D02*
X493841Y12535D01*
X493841Y14710D02*
X496321Y14710D01*
X496321Y16885D02*
X493841Y16885D01*
X493841Y19060D02*
X496321Y19060D01*
X496321Y21235D02*
X493841Y21235D01*
X493841Y23410D02*
X496321Y23410D01*
X491321Y6010D02*
X488841Y6010D01*
X488841Y24490D01*
X491321Y24490D01*
X491321Y6010D01*
X491321Y8185D02*
X488841Y8185D01*
X488841Y10360D02*
X491321Y10360D01*
X491321Y12535D02*
X488841Y12535D01*
X488841Y14710D02*
X491321Y14710D01*
X491321Y16885D02*
X488841Y16885D01*
X488841Y19060D02*
X491321Y19060D01*
X491321Y21235D02*
X488841Y21235D01*
X488841Y23410D02*
X491321Y23410D01*
X486321Y6010D02*
X483841Y6010D01*
X483841Y24490D01*
X486321Y24490D01*
X486321Y6010D01*
X486321Y8185D02*
X483841Y8185D01*
X483841Y10360D02*
X486321Y10360D01*
X486321Y12535D02*
X483841Y12535D01*
X483841Y14710D02*
X486321Y14710D01*
X486321Y16885D02*
X483841Y16885D01*
X483841Y19060D02*
X486321Y19060D01*
X486321Y21235D02*
X483841Y21235D01*
X483841Y23410D02*
X486321Y23410D01*
D11*
X755081Y461000D03*
X755081Y419000D03*
X742081Y440000D03*
X395081Y419000D03*
X395081Y461000D03*
X408081Y440000D03*
D12*
X403631Y107950D03*
X732561Y488950D03*
D10*
X1048905Y6010D02*
X1051385Y6010D01*
X1048905Y6010D02*
X1048905Y24490D01*
X1051385Y24490D01*
X1051385Y6010D01*
X1051385Y8185D02*
X1048905Y8185D01*
X1048905Y10360D02*
X1051385Y10360D01*
X1051385Y12535D02*
X1048905Y12535D01*
X1048905Y14710D02*
X1051385Y14710D01*
X1051385Y16885D02*
X1048905Y16885D01*
X1048905Y19060D02*
X1051385Y19060D01*
X1051385Y21235D02*
X1048905Y21235D01*
X1048905Y23410D02*
X1051385Y23410D01*
X1046385Y6010D02*
X1043905Y6010D01*
X1043905Y24490D01*
X1046385Y24490D01*
X1046385Y6010D01*
X1046385Y8185D02*
X1043905Y8185D01*
X1043905Y10360D02*
X1046385Y10360D01*
X1046385Y12535D02*
X1043905Y12535D01*
X1043905Y14710D02*
X1046385Y14710D01*
X1046385Y16885D02*
X1043905Y16885D01*
X1043905Y19060D02*
X1046385Y19060D01*
X1046385Y21235D02*
X1043905Y21235D01*
X1043905Y23410D02*
X1046385Y23410D01*
X1041385Y6010D02*
X1038905Y6010D01*
X1038905Y24490D01*
X1041385Y24490D01*
X1041385Y6010D01*
X1041385Y8185D02*
X1038905Y8185D01*
X1038905Y10360D02*
X1041385Y10360D01*
X1041385Y12535D02*
X1038905Y12535D01*
X1038905Y14710D02*
X1041385Y14710D01*
X1041385Y16885D02*
X1038905Y16885D01*
X1038905Y19060D02*
X1041385Y19060D01*
X1041385Y21235D02*
X1038905Y21235D01*
X1038905Y23410D02*
X1041385Y23410D01*
X1036385Y6010D02*
X1033905Y6010D01*
X1033905Y24490D01*
X1036385Y24490D01*
X1036385Y6010D01*
X1036385Y8185D02*
X1033905Y8185D01*
X1033905Y10360D02*
X1036385Y10360D01*
X1036385Y12535D02*
X1033905Y12535D01*
X1033905Y14710D02*
X1036385Y14710D01*
X1036385Y16885D02*
X1033905Y16885D01*
X1033905Y19060D02*
X1036385Y19060D01*
X1036385Y21235D02*
X1033905Y21235D01*
X1033905Y23410D02*
X1036385Y23410D01*
X1031385Y6010D02*
X1028905Y6010D01*
X1028905Y24490D01*
X1031385Y24490D01*
X1031385Y6010D01*
X1031385Y8185D02*
X1028905Y8185D01*
X1028905Y10360D02*
X1031385Y10360D01*
X1031385Y12535D02*
X1028905Y12535D01*
X1028905Y14710D02*
X1031385Y14710D01*
X1031385Y16885D02*
X1028905Y16885D01*
X1028905Y19060D02*
X1031385Y19060D01*
X1031385Y21235D02*
X1028905Y21235D01*
X1028905Y23410D02*
X1031385Y23410D01*
X1026385Y6010D02*
X1023905Y6010D01*
X1023905Y24490D01*
X1026385Y24490D01*
X1026385Y6010D01*
X1026385Y8185D02*
X1023905Y8185D01*
X1023905Y10360D02*
X1026385Y10360D01*
X1026385Y12535D02*
X1023905Y12535D01*
X1023905Y14710D02*
X1026385Y14710D01*
X1026385Y16885D02*
X1023905Y16885D01*
X1023905Y19060D02*
X1026385Y19060D01*
X1026385Y21235D02*
X1023905Y21235D01*
X1023905Y23410D02*
X1026385Y23410D01*
X1021385Y6010D02*
X1018905Y6010D01*
X1018905Y24490D01*
X1021385Y24490D01*
X1021385Y6010D01*
X1021385Y8185D02*
X1018905Y8185D01*
X1018905Y10360D02*
X1021385Y10360D01*
X1021385Y12535D02*
X1018905Y12535D01*
X1018905Y14710D02*
X1021385Y14710D01*
X1021385Y16885D02*
X1018905Y16885D01*
X1018905Y19060D02*
X1021385Y19060D01*
X1021385Y21235D02*
X1018905Y21235D01*
X1018905Y23410D02*
X1021385Y23410D01*
X1016385Y6010D02*
X1013905Y6010D01*
X1013905Y24490D01*
X1016385Y24490D01*
X1016385Y6010D01*
X1016385Y8185D02*
X1013905Y8185D01*
X1013905Y10360D02*
X1016385Y10360D01*
X1016385Y12535D02*
X1013905Y12535D01*
X1013905Y14710D02*
X1016385Y14710D01*
X1016385Y16885D02*
X1013905Y16885D01*
X1013905Y19060D02*
X1016385Y19060D01*
X1016385Y21235D02*
X1013905Y21235D01*
X1013905Y23410D02*
X1016385Y23410D01*
X1011385Y6010D02*
X1008905Y6010D01*
X1008905Y24490D01*
X1011385Y24490D01*
X1011385Y6010D01*
X1011385Y8185D02*
X1008905Y8185D01*
X1008905Y10360D02*
X1011385Y10360D01*
X1011385Y12535D02*
X1008905Y12535D01*
X1008905Y14710D02*
X1011385Y14710D01*
X1011385Y16885D02*
X1008905Y16885D01*
X1008905Y19060D02*
X1011385Y19060D01*
X1011385Y21235D02*
X1008905Y21235D01*
X1008905Y23410D02*
X1011385Y23410D01*
X1006385Y6010D02*
X1003905Y6010D01*
X1003905Y24490D01*
X1006385Y24490D01*
X1006385Y6010D01*
X1006385Y8185D02*
X1003905Y8185D01*
X1003905Y10360D02*
X1006385Y10360D01*
X1006385Y12535D02*
X1003905Y12535D01*
X1003905Y14710D02*
X1006385Y14710D01*
X1006385Y16885D02*
X1003905Y16885D01*
X1003905Y19060D02*
X1006385Y19060D01*
X1006385Y21235D02*
X1003905Y21235D01*
X1003905Y23410D02*
X1006385Y23410D01*
X1001385Y6010D02*
X998905Y6010D01*
X998905Y24490D01*
X1001385Y24490D01*
X1001385Y6010D01*
X1001385Y8185D02*
X998905Y8185D01*
X998905Y10360D02*
X1001385Y10360D01*
X1001385Y12535D02*
X998905Y12535D01*
X998905Y14710D02*
X1001385Y14710D01*
X1001385Y16885D02*
X998905Y16885D01*
X998905Y19060D02*
X1001385Y19060D01*
X1001385Y21235D02*
X998905Y21235D01*
X998905Y23410D02*
X1001385Y23410D01*
X976385Y6010D02*
X973905Y6010D01*
X973905Y24490D01*
X976385Y24490D01*
X976385Y6010D01*
X976385Y8185D02*
X973905Y8185D01*
X973905Y10360D02*
X976385Y10360D01*
X976385Y12535D02*
X973905Y12535D01*
X973905Y14710D02*
X976385Y14710D01*
X976385Y16885D02*
X973905Y16885D01*
X973905Y19060D02*
X976385Y19060D01*
X976385Y21235D02*
X973905Y21235D01*
X973905Y23410D02*
X976385Y23410D01*
X971385Y6010D02*
X968905Y6010D01*
X968905Y24490D01*
X971385Y24490D01*
X971385Y6010D01*
X971385Y8185D02*
X968905Y8185D01*
X968905Y10360D02*
X971385Y10360D01*
X971385Y12535D02*
X968905Y12535D01*
X968905Y14710D02*
X971385Y14710D01*
X971385Y16885D02*
X968905Y16885D01*
X968905Y19060D02*
X971385Y19060D01*
X971385Y21235D02*
X968905Y21235D01*
X968905Y23410D02*
X971385Y23410D01*
X966385Y6010D02*
X963905Y6010D01*
X963905Y24490D01*
X966385Y24490D01*
X966385Y6010D01*
X966385Y8185D02*
X963905Y8185D01*
X963905Y10360D02*
X966385Y10360D01*
X966385Y12535D02*
X963905Y12535D01*
X963905Y14710D02*
X966385Y14710D01*
X966385Y16885D02*
X963905Y16885D01*
X963905Y19060D02*
X966385Y19060D01*
X966385Y21235D02*
X963905Y21235D01*
X963905Y23410D02*
X966385Y23410D01*
X961385Y6010D02*
X958905Y6010D01*
X958905Y24490D01*
X961385Y24490D01*
X961385Y6010D01*
X961385Y8185D02*
X958905Y8185D01*
X958905Y10360D02*
X961385Y10360D01*
X961385Y12535D02*
X958905Y12535D01*
X958905Y14710D02*
X961385Y14710D01*
X961385Y16885D02*
X958905Y16885D01*
X958905Y19060D02*
X961385Y19060D01*
X961385Y21235D02*
X958905Y21235D01*
X958905Y23410D02*
X961385Y23410D01*
X956385Y6010D02*
X953905Y6010D01*
X953905Y24490D01*
X956385Y24490D01*
X956385Y6010D01*
X956385Y8185D02*
X953905Y8185D01*
X953905Y10360D02*
X956385Y10360D01*
X956385Y12535D02*
X953905Y12535D01*
X953905Y14710D02*
X956385Y14710D01*
X956385Y16885D02*
X953905Y16885D01*
X953905Y19060D02*
X956385Y19060D01*
X956385Y21235D02*
X953905Y21235D01*
X953905Y23410D02*
X956385Y23410D01*
X951385Y6010D02*
X948905Y6010D01*
X948905Y24490D01*
X951385Y24490D01*
X951385Y6010D01*
X951385Y8185D02*
X948905Y8185D01*
X948905Y10360D02*
X951385Y10360D01*
X951385Y12535D02*
X948905Y12535D01*
X948905Y14710D02*
X951385Y14710D01*
X951385Y16885D02*
X948905Y16885D01*
X948905Y19060D02*
X951385Y19060D01*
X951385Y21235D02*
X948905Y21235D01*
X948905Y23410D02*
X951385Y23410D01*
X946385Y6010D02*
X943905Y6010D01*
X943905Y24490D01*
X946385Y24490D01*
X946385Y6010D01*
X946385Y8185D02*
X943905Y8185D01*
X943905Y10360D02*
X946385Y10360D01*
X946385Y12535D02*
X943905Y12535D01*
X943905Y14710D02*
X946385Y14710D01*
X946385Y16885D02*
X943905Y16885D01*
X943905Y19060D02*
X946385Y19060D01*
X946385Y21235D02*
X943905Y21235D01*
X943905Y23410D02*
X946385Y23410D01*
X941385Y6010D02*
X938905Y6010D01*
X938905Y24490D01*
X941385Y24490D01*
X941385Y6010D01*
X941385Y8185D02*
X938905Y8185D01*
X938905Y10360D02*
X941385Y10360D01*
X941385Y12535D02*
X938905Y12535D01*
X938905Y14710D02*
X941385Y14710D01*
X941385Y16885D02*
X938905Y16885D01*
X938905Y19060D02*
X941385Y19060D01*
X941385Y21235D02*
X938905Y21235D01*
X938905Y23410D02*
X941385Y23410D01*
X936385Y6010D02*
X933905Y6010D01*
X933905Y24490D01*
X936385Y24490D01*
X936385Y6010D01*
X936385Y8185D02*
X933905Y8185D01*
X933905Y10360D02*
X936385Y10360D01*
X936385Y12535D02*
X933905Y12535D01*
X933905Y14710D02*
X936385Y14710D01*
X936385Y16885D02*
X933905Y16885D01*
X933905Y19060D02*
X936385Y19060D01*
X936385Y21235D02*
X933905Y21235D01*
X933905Y23410D02*
X936385Y23410D01*
X931385Y6010D02*
X928905Y6010D01*
X928905Y24490D01*
X931385Y24490D01*
X931385Y6010D01*
X931385Y8185D02*
X928905Y8185D01*
X928905Y10360D02*
X931385Y10360D01*
X931385Y12535D02*
X928905Y12535D01*
X928905Y14710D02*
X931385Y14710D01*
X931385Y16885D02*
X928905Y16885D01*
X928905Y19060D02*
X931385Y19060D01*
X931385Y21235D02*
X928905Y21235D01*
X928905Y23410D02*
X931385Y23410D01*
X926385Y6010D02*
X923905Y6010D01*
X923905Y24490D01*
X926385Y24490D01*
X926385Y6010D01*
X926385Y8185D02*
X923905Y8185D01*
X923905Y10360D02*
X926385Y10360D01*
X926385Y12535D02*
X923905Y12535D01*
X923905Y14710D02*
X926385Y14710D01*
X926385Y16885D02*
X923905Y16885D01*
X923905Y19060D02*
X926385Y19060D01*
X926385Y21235D02*
X923905Y21235D01*
X923905Y23410D02*
X926385Y23410D01*
X921385Y6010D02*
X918905Y6010D01*
X918905Y24490D01*
X921385Y24490D01*
X921385Y6010D01*
X921385Y8185D02*
X918905Y8185D01*
X918905Y10360D02*
X921385Y10360D01*
X921385Y12535D02*
X918905Y12535D01*
X918905Y14710D02*
X921385Y14710D01*
X921385Y16885D02*
X918905Y16885D01*
X918905Y19060D02*
X921385Y19060D01*
X921385Y21235D02*
X918905Y21235D01*
X918905Y23410D02*
X921385Y23410D01*
X916385Y6010D02*
X913905Y6010D01*
X913905Y24490D01*
X916385Y24490D01*
X916385Y6010D01*
X916385Y8185D02*
X913905Y8185D01*
X913905Y10360D02*
X916385Y10360D01*
X916385Y12535D02*
X913905Y12535D01*
X913905Y14710D02*
X916385Y14710D01*
X916385Y16885D02*
X913905Y16885D01*
X913905Y19060D02*
X916385Y19060D01*
X916385Y21235D02*
X913905Y21235D01*
X913905Y23410D02*
X916385Y23410D01*
X911385Y6010D02*
X908905Y6010D01*
X908905Y24490D01*
X911385Y24490D01*
X911385Y6010D01*
X911385Y8185D02*
X908905Y8185D01*
X908905Y10360D02*
X911385Y10360D01*
X911385Y12535D02*
X908905Y12535D01*
X908905Y14710D02*
X911385Y14710D01*
X911385Y16885D02*
X908905Y16885D01*
X908905Y19060D02*
X911385Y19060D01*
X911385Y21235D02*
X908905Y21235D01*
X908905Y23410D02*
X911385Y23410D01*
X906385Y6010D02*
X903905Y6010D01*
X903905Y24490D01*
X906385Y24490D01*
X906385Y6010D01*
X906385Y8185D02*
X903905Y8185D01*
X903905Y10360D02*
X906385Y10360D01*
X906385Y12535D02*
X903905Y12535D01*
X903905Y14710D02*
X906385Y14710D01*
X906385Y16885D02*
X903905Y16885D01*
X903905Y19060D02*
X906385Y19060D01*
X906385Y21235D02*
X903905Y21235D01*
X903905Y23410D02*
X906385Y23410D01*
X901385Y6010D02*
X898905Y6010D01*
X898905Y24490D01*
X901385Y24490D01*
X901385Y6010D01*
X901385Y8185D02*
X898905Y8185D01*
X898905Y10360D02*
X901385Y10360D01*
X901385Y12535D02*
X898905Y12535D01*
X898905Y14710D02*
X901385Y14710D01*
X901385Y16885D02*
X898905Y16885D01*
X898905Y19060D02*
X901385Y19060D01*
X901385Y21235D02*
X898905Y21235D01*
X898905Y23410D02*
X901385Y23410D01*
X896385Y6010D02*
X893905Y6010D01*
X893905Y24490D01*
X896385Y24490D01*
X896385Y6010D01*
X896385Y8185D02*
X893905Y8185D01*
X893905Y10360D02*
X896385Y10360D01*
X896385Y12535D02*
X893905Y12535D01*
X893905Y14710D02*
X896385Y14710D01*
X896385Y16885D02*
X893905Y16885D01*
X893905Y19060D02*
X896385Y19060D01*
X896385Y21235D02*
X893905Y21235D01*
X893905Y23410D02*
X896385Y23410D01*
X891385Y6010D02*
X888905Y6010D01*
X888905Y24490D01*
X891385Y24490D01*
X891385Y6010D01*
X891385Y8185D02*
X888905Y8185D01*
X888905Y10360D02*
X891385Y10360D01*
X891385Y12535D02*
X888905Y12535D01*
X888905Y14710D02*
X891385Y14710D01*
X891385Y16885D02*
X888905Y16885D01*
X888905Y19060D02*
X891385Y19060D01*
X891385Y21235D02*
X888905Y21235D01*
X888905Y23410D02*
X891385Y23410D01*
X886385Y6010D02*
X883905Y6010D01*
X883905Y24490D01*
X886385Y24490D01*
X886385Y6010D01*
X886385Y8185D02*
X883905Y8185D01*
X883905Y10360D02*
X886385Y10360D01*
X886385Y12535D02*
X883905Y12535D01*
X883905Y14710D02*
X886385Y14710D01*
X886385Y16885D02*
X883905Y16885D01*
X883905Y19060D02*
X886385Y19060D01*
X886385Y21235D02*
X883905Y21235D01*
X883905Y23410D02*
X886385Y23410D01*
X881385Y6010D02*
X878905Y6010D01*
X878905Y24490D01*
X881385Y24490D01*
X881385Y6010D01*
X881385Y8185D02*
X878905Y8185D01*
X878905Y10360D02*
X881385Y10360D01*
X881385Y12535D02*
X878905Y12535D01*
X878905Y14710D02*
X881385Y14710D01*
X881385Y16885D02*
X878905Y16885D01*
X878905Y19060D02*
X881385Y19060D01*
X881385Y21235D02*
X878905Y21235D01*
X878905Y23410D02*
X881385Y23410D01*
X876385Y6010D02*
X873905Y6010D01*
X873905Y24490D01*
X876385Y24490D01*
X876385Y6010D01*
X876385Y8185D02*
X873905Y8185D01*
X873905Y10360D02*
X876385Y10360D01*
X876385Y12535D02*
X873905Y12535D01*
X873905Y14710D02*
X876385Y14710D01*
X876385Y16885D02*
X873905Y16885D01*
X873905Y19060D02*
X876385Y19060D01*
X876385Y21235D02*
X873905Y21235D01*
X873905Y23410D02*
X876385Y23410D01*
X871385Y6010D02*
X868905Y6010D01*
X868905Y24490D01*
X871385Y24490D01*
X871385Y6010D01*
X871385Y8185D02*
X868905Y8185D01*
X868905Y10360D02*
X871385Y10360D01*
X871385Y12535D02*
X868905Y12535D01*
X868905Y14710D02*
X871385Y14710D01*
X871385Y16885D02*
X868905Y16885D01*
X868905Y19060D02*
X871385Y19060D01*
X871385Y21235D02*
X868905Y21235D01*
X868905Y23410D02*
X871385Y23410D01*
D11*
X1140145Y461000D03*
X1140145Y419000D03*
X1127145Y440000D03*
X780145Y419000D03*
X780145Y461000D03*
X793145Y440000D03*
D12*
X788695Y107950D03*
X1117625Y488950D03*
D10*
X101257Y1357487D02*
X98777Y1357487D01*
X101257Y1357487D02*
X101257Y1339007D01*
X98777Y1339007D01*
X98777Y1357487D01*
X98777Y1341182D02*
X101257Y1341182D01*
X101257Y1343357D02*
X98777Y1343357D01*
X98777Y1345532D02*
X101257Y1345532D01*
X101257Y1347707D02*
X98777Y1347707D01*
X98777Y1349882D02*
X101257Y1349882D01*
X101257Y1352057D02*
X98777Y1352057D01*
X98777Y1354232D02*
X101257Y1354232D01*
X101257Y1356407D02*
X98777Y1356407D01*
X103777Y1357487D02*
X106257Y1357487D01*
X106257Y1339007D01*
X103777Y1339007D01*
X103777Y1357487D01*
X103777Y1341182D02*
X106257Y1341182D01*
X106257Y1343357D02*
X103777Y1343357D01*
X103777Y1345532D02*
X106257Y1345532D01*
X106257Y1347707D02*
X103777Y1347707D01*
X103777Y1349882D02*
X106257Y1349882D01*
X106257Y1352057D02*
X103777Y1352057D01*
X103777Y1354232D02*
X106257Y1354232D01*
X106257Y1356407D02*
X103777Y1356407D01*
X108777Y1357487D02*
X111257Y1357487D01*
X111257Y1339007D01*
X108777Y1339007D01*
X108777Y1357487D01*
X108777Y1341182D02*
X111257Y1341182D01*
X111257Y1343357D02*
X108777Y1343357D01*
X108777Y1345532D02*
X111257Y1345532D01*
X111257Y1347707D02*
X108777Y1347707D01*
X108777Y1349882D02*
X111257Y1349882D01*
X111257Y1352057D02*
X108777Y1352057D01*
X108777Y1354232D02*
X111257Y1354232D01*
X111257Y1356407D02*
X108777Y1356407D01*
X113777Y1357487D02*
X116257Y1357487D01*
X116257Y1339007D01*
X113777Y1339007D01*
X113777Y1357487D01*
X113777Y1341182D02*
X116257Y1341182D01*
X116257Y1343357D02*
X113777Y1343357D01*
X113777Y1345532D02*
X116257Y1345532D01*
X116257Y1347707D02*
X113777Y1347707D01*
X113777Y1349882D02*
X116257Y1349882D01*
X116257Y1352057D02*
X113777Y1352057D01*
X113777Y1354232D02*
X116257Y1354232D01*
X116257Y1356407D02*
X113777Y1356407D01*
X118777Y1357487D02*
X121257Y1357487D01*
X121257Y1339007D01*
X118777Y1339007D01*
X118777Y1357487D01*
X118777Y1341182D02*
X121257Y1341182D01*
X121257Y1343357D02*
X118777Y1343357D01*
X118777Y1345532D02*
X121257Y1345532D01*
X121257Y1347707D02*
X118777Y1347707D01*
X118777Y1349882D02*
X121257Y1349882D01*
X121257Y1352057D02*
X118777Y1352057D01*
X118777Y1354232D02*
X121257Y1354232D01*
X121257Y1356407D02*
X118777Y1356407D01*
X123777Y1357487D02*
X126257Y1357487D01*
X126257Y1339007D01*
X123777Y1339007D01*
X123777Y1357487D01*
X123777Y1341182D02*
X126257Y1341182D01*
X126257Y1343357D02*
X123777Y1343357D01*
X123777Y1345532D02*
X126257Y1345532D01*
X126257Y1347707D02*
X123777Y1347707D01*
X123777Y1349882D02*
X126257Y1349882D01*
X126257Y1352057D02*
X123777Y1352057D01*
X123777Y1354232D02*
X126257Y1354232D01*
X126257Y1356407D02*
X123777Y1356407D01*
X128777Y1357487D02*
X131257Y1357487D01*
X131257Y1339007D01*
X128777Y1339007D01*
X128777Y1357487D01*
X128777Y1341182D02*
X131257Y1341182D01*
X131257Y1343357D02*
X128777Y1343357D01*
X128777Y1345532D02*
X131257Y1345532D01*
X131257Y1347707D02*
X128777Y1347707D01*
X128777Y1349882D02*
X131257Y1349882D01*
X131257Y1352057D02*
X128777Y1352057D01*
X128777Y1354232D02*
X131257Y1354232D01*
X131257Y1356407D02*
X128777Y1356407D01*
X133777Y1357487D02*
X136257Y1357487D01*
X136257Y1339007D01*
X133777Y1339007D01*
X133777Y1357487D01*
X133777Y1341182D02*
X136257Y1341182D01*
X136257Y1343357D02*
X133777Y1343357D01*
X133777Y1345532D02*
X136257Y1345532D01*
X136257Y1347707D02*
X133777Y1347707D01*
X133777Y1349882D02*
X136257Y1349882D01*
X136257Y1352057D02*
X133777Y1352057D01*
X133777Y1354232D02*
X136257Y1354232D01*
X136257Y1356407D02*
X133777Y1356407D01*
X138777Y1357487D02*
X141257Y1357487D01*
X141257Y1339007D01*
X138777Y1339007D01*
X138777Y1357487D01*
X138777Y1341182D02*
X141257Y1341182D01*
X141257Y1343357D02*
X138777Y1343357D01*
X138777Y1345532D02*
X141257Y1345532D01*
X141257Y1347707D02*
X138777Y1347707D01*
X138777Y1349882D02*
X141257Y1349882D01*
X141257Y1352057D02*
X138777Y1352057D01*
X138777Y1354232D02*
X141257Y1354232D01*
X141257Y1356407D02*
X138777Y1356407D01*
X143777Y1357487D02*
X146257Y1357487D01*
X146257Y1339007D01*
X143777Y1339007D01*
X143777Y1357487D01*
X143777Y1341182D02*
X146257Y1341182D01*
X146257Y1343357D02*
X143777Y1343357D01*
X143777Y1345532D02*
X146257Y1345532D01*
X146257Y1347707D02*
X143777Y1347707D01*
X143777Y1349882D02*
X146257Y1349882D01*
X146257Y1352057D02*
X143777Y1352057D01*
X143777Y1354232D02*
X146257Y1354232D01*
X146257Y1356407D02*
X143777Y1356407D01*
X148777Y1357487D02*
X151257Y1357487D01*
X151257Y1339007D01*
X148777Y1339007D01*
X148777Y1357487D01*
X148777Y1341182D02*
X151257Y1341182D01*
X151257Y1343357D02*
X148777Y1343357D01*
X148777Y1345532D02*
X151257Y1345532D01*
X151257Y1347707D02*
X148777Y1347707D01*
X148777Y1349882D02*
X151257Y1349882D01*
X151257Y1352057D02*
X148777Y1352057D01*
X148777Y1354232D02*
X151257Y1354232D01*
X151257Y1356407D02*
X148777Y1356407D01*
X173777Y1357487D02*
X176257Y1357487D01*
X176257Y1339007D01*
X173777Y1339007D01*
X173777Y1357487D01*
X173777Y1341182D02*
X176257Y1341182D01*
X176257Y1343357D02*
X173777Y1343357D01*
X173777Y1345532D02*
X176257Y1345532D01*
X176257Y1347707D02*
X173777Y1347707D01*
X173777Y1349882D02*
X176257Y1349882D01*
X176257Y1352057D02*
X173777Y1352057D01*
X173777Y1354232D02*
X176257Y1354232D01*
X176257Y1356407D02*
X173777Y1356407D01*
X178777Y1357487D02*
X181257Y1357487D01*
X181257Y1339007D01*
X178777Y1339007D01*
X178777Y1357487D01*
X178777Y1341182D02*
X181257Y1341182D01*
X181257Y1343357D02*
X178777Y1343357D01*
X178777Y1345532D02*
X181257Y1345532D01*
X181257Y1347707D02*
X178777Y1347707D01*
X178777Y1349882D02*
X181257Y1349882D01*
X181257Y1352057D02*
X178777Y1352057D01*
X178777Y1354232D02*
X181257Y1354232D01*
X181257Y1356407D02*
X178777Y1356407D01*
X183777Y1357487D02*
X186257Y1357487D01*
X186257Y1339007D01*
X183777Y1339007D01*
X183777Y1357487D01*
X183777Y1341182D02*
X186257Y1341182D01*
X186257Y1343357D02*
X183777Y1343357D01*
X183777Y1345532D02*
X186257Y1345532D01*
X186257Y1347707D02*
X183777Y1347707D01*
X183777Y1349882D02*
X186257Y1349882D01*
X186257Y1352057D02*
X183777Y1352057D01*
X183777Y1354232D02*
X186257Y1354232D01*
X186257Y1356407D02*
X183777Y1356407D01*
X188777Y1357487D02*
X191257Y1357487D01*
X191257Y1339007D01*
X188777Y1339007D01*
X188777Y1357487D01*
X188777Y1341182D02*
X191257Y1341182D01*
X191257Y1343357D02*
X188777Y1343357D01*
X188777Y1345532D02*
X191257Y1345532D01*
X191257Y1347707D02*
X188777Y1347707D01*
X188777Y1349882D02*
X191257Y1349882D01*
X191257Y1352057D02*
X188777Y1352057D01*
X188777Y1354232D02*
X191257Y1354232D01*
X191257Y1356407D02*
X188777Y1356407D01*
X193777Y1357487D02*
X196257Y1357487D01*
X196257Y1339007D01*
X193777Y1339007D01*
X193777Y1357487D01*
X193777Y1341182D02*
X196257Y1341182D01*
X196257Y1343357D02*
X193777Y1343357D01*
X193777Y1345532D02*
X196257Y1345532D01*
X196257Y1347707D02*
X193777Y1347707D01*
X193777Y1349882D02*
X196257Y1349882D01*
X196257Y1352057D02*
X193777Y1352057D01*
X193777Y1354232D02*
X196257Y1354232D01*
X196257Y1356407D02*
X193777Y1356407D01*
X198777Y1357487D02*
X201257Y1357487D01*
X201257Y1339007D01*
X198777Y1339007D01*
X198777Y1357487D01*
X198777Y1341182D02*
X201257Y1341182D01*
X201257Y1343357D02*
X198777Y1343357D01*
X198777Y1345532D02*
X201257Y1345532D01*
X201257Y1347707D02*
X198777Y1347707D01*
X198777Y1349882D02*
X201257Y1349882D01*
X201257Y1352057D02*
X198777Y1352057D01*
X198777Y1354232D02*
X201257Y1354232D01*
X201257Y1356407D02*
X198777Y1356407D01*
X203777Y1357487D02*
X206257Y1357487D01*
X206257Y1339007D01*
X203777Y1339007D01*
X203777Y1357487D01*
X203777Y1341182D02*
X206257Y1341182D01*
X206257Y1343357D02*
X203777Y1343357D01*
X203777Y1345532D02*
X206257Y1345532D01*
X206257Y1347707D02*
X203777Y1347707D01*
X203777Y1349882D02*
X206257Y1349882D01*
X206257Y1352057D02*
X203777Y1352057D01*
X203777Y1354232D02*
X206257Y1354232D01*
X206257Y1356407D02*
X203777Y1356407D01*
X208777Y1357487D02*
X211257Y1357487D01*
X211257Y1339007D01*
X208777Y1339007D01*
X208777Y1357487D01*
X208777Y1341182D02*
X211257Y1341182D01*
X211257Y1343357D02*
X208777Y1343357D01*
X208777Y1345532D02*
X211257Y1345532D01*
X211257Y1347707D02*
X208777Y1347707D01*
X208777Y1349882D02*
X211257Y1349882D01*
X211257Y1352057D02*
X208777Y1352057D01*
X208777Y1354232D02*
X211257Y1354232D01*
X211257Y1356407D02*
X208777Y1356407D01*
X213777Y1357487D02*
X216257Y1357487D01*
X216257Y1339007D01*
X213777Y1339007D01*
X213777Y1357487D01*
X213777Y1341182D02*
X216257Y1341182D01*
X216257Y1343357D02*
X213777Y1343357D01*
X213777Y1345532D02*
X216257Y1345532D01*
X216257Y1347707D02*
X213777Y1347707D01*
X213777Y1349882D02*
X216257Y1349882D01*
X216257Y1352057D02*
X213777Y1352057D01*
X213777Y1354232D02*
X216257Y1354232D01*
X216257Y1356407D02*
X213777Y1356407D01*
X218777Y1357487D02*
X221257Y1357487D01*
X221257Y1339007D01*
X218777Y1339007D01*
X218777Y1357487D01*
X218777Y1341182D02*
X221257Y1341182D01*
X221257Y1343357D02*
X218777Y1343357D01*
X218777Y1345532D02*
X221257Y1345532D01*
X221257Y1347707D02*
X218777Y1347707D01*
X218777Y1349882D02*
X221257Y1349882D01*
X221257Y1352057D02*
X218777Y1352057D01*
X218777Y1354232D02*
X221257Y1354232D01*
X221257Y1356407D02*
X218777Y1356407D01*
X223777Y1357487D02*
X226257Y1357487D01*
X226257Y1339007D01*
X223777Y1339007D01*
X223777Y1357487D01*
X223777Y1341182D02*
X226257Y1341182D01*
X226257Y1343357D02*
X223777Y1343357D01*
X223777Y1345532D02*
X226257Y1345532D01*
X226257Y1347707D02*
X223777Y1347707D01*
X223777Y1349882D02*
X226257Y1349882D01*
X226257Y1352057D02*
X223777Y1352057D01*
X223777Y1354232D02*
X226257Y1354232D01*
X226257Y1356407D02*
X223777Y1356407D01*
X228777Y1357487D02*
X231257Y1357487D01*
X231257Y1339007D01*
X228777Y1339007D01*
X228777Y1357487D01*
X228777Y1341182D02*
X231257Y1341182D01*
X231257Y1343357D02*
X228777Y1343357D01*
X228777Y1345532D02*
X231257Y1345532D01*
X231257Y1347707D02*
X228777Y1347707D01*
X228777Y1349882D02*
X231257Y1349882D01*
X231257Y1352057D02*
X228777Y1352057D01*
X228777Y1354232D02*
X231257Y1354232D01*
X231257Y1356407D02*
X228777Y1356407D01*
X233777Y1357487D02*
X236257Y1357487D01*
X236257Y1339007D01*
X233777Y1339007D01*
X233777Y1357487D01*
X233777Y1341182D02*
X236257Y1341182D01*
X236257Y1343357D02*
X233777Y1343357D01*
X233777Y1345532D02*
X236257Y1345532D01*
X236257Y1347707D02*
X233777Y1347707D01*
X233777Y1349882D02*
X236257Y1349882D01*
X236257Y1352057D02*
X233777Y1352057D01*
X233777Y1354232D02*
X236257Y1354232D01*
X236257Y1356407D02*
X233777Y1356407D01*
X238777Y1357487D02*
X241257Y1357487D01*
X241257Y1339007D01*
X238777Y1339007D01*
X238777Y1357487D01*
X238777Y1341182D02*
X241257Y1341182D01*
X241257Y1343357D02*
X238777Y1343357D01*
X238777Y1345532D02*
X241257Y1345532D01*
X241257Y1347707D02*
X238777Y1347707D01*
X238777Y1349882D02*
X241257Y1349882D01*
X241257Y1352057D02*
X238777Y1352057D01*
X238777Y1354232D02*
X241257Y1354232D01*
X241257Y1356407D02*
X238777Y1356407D01*
X243777Y1357487D02*
X246257Y1357487D01*
X246257Y1339007D01*
X243777Y1339007D01*
X243777Y1357487D01*
X243777Y1341182D02*
X246257Y1341182D01*
X246257Y1343357D02*
X243777Y1343357D01*
X243777Y1345532D02*
X246257Y1345532D01*
X246257Y1347707D02*
X243777Y1347707D01*
X243777Y1349882D02*
X246257Y1349882D01*
X246257Y1352057D02*
X243777Y1352057D01*
X243777Y1354232D02*
X246257Y1354232D01*
X246257Y1356407D02*
X243777Y1356407D01*
X248777Y1357487D02*
X251257Y1357487D01*
X251257Y1339007D01*
X248777Y1339007D01*
X248777Y1357487D01*
X248777Y1341182D02*
X251257Y1341182D01*
X251257Y1343357D02*
X248777Y1343357D01*
X248777Y1345532D02*
X251257Y1345532D01*
X251257Y1347707D02*
X248777Y1347707D01*
X248777Y1349882D02*
X251257Y1349882D01*
X251257Y1352057D02*
X248777Y1352057D01*
X248777Y1354232D02*
X251257Y1354232D01*
X251257Y1356407D02*
X248777Y1356407D01*
X253777Y1357487D02*
X256257Y1357487D01*
X256257Y1339007D01*
X253777Y1339007D01*
X253777Y1357487D01*
X253777Y1341182D02*
X256257Y1341182D01*
X256257Y1343357D02*
X253777Y1343357D01*
X253777Y1345532D02*
X256257Y1345532D01*
X256257Y1347707D02*
X253777Y1347707D01*
X253777Y1349882D02*
X256257Y1349882D01*
X256257Y1352057D02*
X253777Y1352057D01*
X253777Y1354232D02*
X256257Y1354232D01*
X256257Y1356407D02*
X253777Y1356407D01*
X258777Y1357487D02*
X261257Y1357487D01*
X261257Y1339007D01*
X258777Y1339007D01*
X258777Y1357487D01*
X258777Y1341182D02*
X261257Y1341182D01*
X261257Y1343357D02*
X258777Y1343357D01*
X258777Y1345532D02*
X261257Y1345532D01*
X261257Y1347707D02*
X258777Y1347707D01*
X258777Y1349882D02*
X261257Y1349882D01*
X261257Y1352057D02*
X258777Y1352057D01*
X258777Y1354232D02*
X261257Y1354232D01*
X261257Y1356407D02*
X258777Y1356407D01*
X263777Y1357487D02*
X266257Y1357487D01*
X266257Y1339007D01*
X263777Y1339007D01*
X263777Y1357487D01*
X263777Y1341182D02*
X266257Y1341182D01*
X266257Y1343357D02*
X263777Y1343357D01*
X263777Y1345532D02*
X266257Y1345532D01*
X266257Y1347707D02*
X263777Y1347707D01*
X263777Y1349882D02*
X266257Y1349882D01*
X266257Y1352057D02*
X263777Y1352057D01*
X263777Y1354232D02*
X266257Y1354232D01*
X266257Y1356407D02*
X263777Y1356407D01*
X268777Y1357487D02*
X271257Y1357487D01*
X271257Y1339007D01*
X268777Y1339007D01*
X268777Y1357487D01*
X268777Y1341182D02*
X271257Y1341182D01*
X271257Y1343357D02*
X268777Y1343357D01*
X268777Y1345532D02*
X271257Y1345532D01*
X271257Y1347707D02*
X268777Y1347707D01*
X268777Y1349882D02*
X271257Y1349882D01*
X271257Y1352057D02*
X268777Y1352057D01*
X268777Y1354232D02*
X271257Y1354232D01*
X271257Y1356407D02*
X268777Y1356407D01*
X273777Y1357487D02*
X276257Y1357487D01*
X276257Y1339007D01*
X273777Y1339007D01*
X273777Y1357487D01*
X273777Y1341182D02*
X276257Y1341182D01*
X276257Y1343357D02*
X273777Y1343357D01*
X273777Y1345532D02*
X276257Y1345532D01*
X276257Y1347707D02*
X273777Y1347707D01*
X273777Y1349882D02*
X276257Y1349882D01*
X276257Y1352057D02*
X273777Y1352057D01*
X273777Y1354232D02*
X276257Y1354232D01*
X276257Y1356407D02*
X273777Y1356407D01*
X278777Y1357487D02*
X281257Y1357487D01*
X281257Y1339007D01*
X278777Y1339007D01*
X278777Y1357487D01*
X278777Y1341182D02*
X281257Y1341182D01*
X281257Y1343357D02*
X278777Y1343357D01*
X278777Y1345532D02*
X281257Y1345532D01*
X281257Y1347707D02*
X278777Y1347707D01*
X278777Y1349882D02*
X281257Y1349882D01*
X281257Y1352057D02*
X278777Y1352057D01*
X278777Y1354232D02*
X281257Y1354232D01*
X281257Y1356407D02*
X278777Y1356407D01*
D11*
X10017Y902497D03*
X10017Y944497D03*
X23017Y923497D03*
X370017Y944497D03*
X370017Y902497D03*
X357017Y923497D03*
D12*
X361467Y1255547D03*
X32537Y874547D03*
D10*
X483841Y1357487D02*
X486321Y1357487D01*
X486321Y1339007D01*
X483841Y1339007D01*
X483841Y1357487D01*
X483841Y1341182D02*
X486321Y1341182D01*
X486321Y1343357D02*
X483841Y1343357D01*
X483841Y1345532D02*
X486321Y1345532D01*
X486321Y1347707D02*
X483841Y1347707D01*
X483841Y1349882D02*
X486321Y1349882D01*
X486321Y1352057D02*
X483841Y1352057D01*
X483841Y1354232D02*
X486321Y1354232D01*
X486321Y1356407D02*
X483841Y1356407D01*
X488841Y1357487D02*
X491321Y1357487D01*
X491321Y1339007D01*
X488841Y1339007D01*
X488841Y1357487D01*
X488841Y1341182D02*
X491321Y1341182D01*
X491321Y1343357D02*
X488841Y1343357D01*
X488841Y1345532D02*
X491321Y1345532D01*
X491321Y1347707D02*
X488841Y1347707D01*
X488841Y1349882D02*
X491321Y1349882D01*
X491321Y1352057D02*
X488841Y1352057D01*
X488841Y1354232D02*
X491321Y1354232D01*
X491321Y1356407D02*
X488841Y1356407D01*
X493841Y1357487D02*
X496321Y1357487D01*
X496321Y1339007D01*
X493841Y1339007D01*
X493841Y1357487D01*
X493841Y1341182D02*
X496321Y1341182D01*
X496321Y1343357D02*
X493841Y1343357D01*
X493841Y1345532D02*
X496321Y1345532D01*
X496321Y1347707D02*
X493841Y1347707D01*
X493841Y1349882D02*
X496321Y1349882D01*
X496321Y1352057D02*
X493841Y1352057D01*
X493841Y1354232D02*
X496321Y1354232D01*
X496321Y1356407D02*
X493841Y1356407D01*
X498841Y1357487D02*
X501321Y1357487D01*
X501321Y1339007D01*
X498841Y1339007D01*
X498841Y1357487D01*
X498841Y1341182D02*
X501321Y1341182D01*
X501321Y1343357D02*
X498841Y1343357D01*
X498841Y1345532D02*
X501321Y1345532D01*
X501321Y1347707D02*
X498841Y1347707D01*
X498841Y1349882D02*
X501321Y1349882D01*
X501321Y1352057D02*
X498841Y1352057D01*
X498841Y1354232D02*
X501321Y1354232D01*
X501321Y1356407D02*
X498841Y1356407D01*
X503841Y1357487D02*
X506321Y1357487D01*
X506321Y1339007D01*
X503841Y1339007D01*
X503841Y1357487D01*
X503841Y1341182D02*
X506321Y1341182D01*
X506321Y1343357D02*
X503841Y1343357D01*
X503841Y1345532D02*
X506321Y1345532D01*
X506321Y1347707D02*
X503841Y1347707D01*
X503841Y1349882D02*
X506321Y1349882D01*
X506321Y1352057D02*
X503841Y1352057D01*
X503841Y1354232D02*
X506321Y1354232D01*
X506321Y1356407D02*
X503841Y1356407D01*
X508841Y1357487D02*
X511321Y1357487D01*
X511321Y1339007D01*
X508841Y1339007D01*
X508841Y1357487D01*
X508841Y1341182D02*
X511321Y1341182D01*
X511321Y1343357D02*
X508841Y1343357D01*
X508841Y1345532D02*
X511321Y1345532D01*
X511321Y1347707D02*
X508841Y1347707D01*
X508841Y1349882D02*
X511321Y1349882D01*
X511321Y1352057D02*
X508841Y1352057D01*
X508841Y1354232D02*
X511321Y1354232D01*
X511321Y1356407D02*
X508841Y1356407D01*
X513841Y1357487D02*
X516321Y1357487D01*
X516321Y1339007D01*
X513841Y1339007D01*
X513841Y1357487D01*
X513841Y1341182D02*
X516321Y1341182D01*
X516321Y1343357D02*
X513841Y1343357D01*
X513841Y1345532D02*
X516321Y1345532D01*
X516321Y1347707D02*
X513841Y1347707D01*
X513841Y1349882D02*
X516321Y1349882D01*
X516321Y1352057D02*
X513841Y1352057D01*
X513841Y1354232D02*
X516321Y1354232D01*
X516321Y1356407D02*
X513841Y1356407D01*
X518841Y1357487D02*
X521321Y1357487D01*
X521321Y1339007D01*
X518841Y1339007D01*
X518841Y1357487D01*
X518841Y1341182D02*
X521321Y1341182D01*
X521321Y1343357D02*
X518841Y1343357D01*
X518841Y1345532D02*
X521321Y1345532D01*
X521321Y1347707D02*
X518841Y1347707D01*
X518841Y1349882D02*
X521321Y1349882D01*
X521321Y1352057D02*
X518841Y1352057D01*
X518841Y1354232D02*
X521321Y1354232D01*
X521321Y1356407D02*
X518841Y1356407D01*
X523841Y1357487D02*
X526321Y1357487D01*
X526321Y1339007D01*
X523841Y1339007D01*
X523841Y1357487D01*
X523841Y1341182D02*
X526321Y1341182D01*
X526321Y1343357D02*
X523841Y1343357D01*
X523841Y1345532D02*
X526321Y1345532D01*
X526321Y1347707D02*
X523841Y1347707D01*
X523841Y1349882D02*
X526321Y1349882D01*
X526321Y1352057D02*
X523841Y1352057D01*
X523841Y1354232D02*
X526321Y1354232D01*
X526321Y1356407D02*
X523841Y1356407D01*
X528841Y1357487D02*
X531321Y1357487D01*
X531321Y1339007D01*
X528841Y1339007D01*
X528841Y1357487D01*
X528841Y1341182D02*
X531321Y1341182D01*
X531321Y1343357D02*
X528841Y1343357D01*
X528841Y1345532D02*
X531321Y1345532D01*
X531321Y1347707D02*
X528841Y1347707D01*
X528841Y1349882D02*
X531321Y1349882D01*
X531321Y1352057D02*
X528841Y1352057D01*
X528841Y1354232D02*
X531321Y1354232D01*
X531321Y1356407D02*
X528841Y1356407D01*
X533841Y1357487D02*
X536321Y1357487D01*
X536321Y1339007D01*
X533841Y1339007D01*
X533841Y1357487D01*
X533841Y1341182D02*
X536321Y1341182D01*
X536321Y1343357D02*
X533841Y1343357D01*
X533841Y1345532D02*
X536321Y1345532D01*
X536321Y1347707D02*
X533841Y1347707D01*
X533841Y1349882D02*
X536321Y1349882D01*
X536321Y1352057D02*
X533841Y1352057D01*
X533841Y1354232D02*
X536321Y1354232D01*
X536321Y1356407D02*
X533841Y1356407D01*
X558841Y1357487D02*
X561321Y1357487D01*
X561321Y1339007D01*
X558841Y1339007D01*
X558841Y1357487D01*
X558841Y1341182D02*
X561321Y1341182D01*
X561321Y1343357D02*
X558841Y1343357D01*
X558841Y1345532D02*
X561321Y1345532D01*
X561321Y1347707D02*
X558841Y1347707D01*
X558841Y1349882D02*
X561321Y1349882D01*
X561321Y1352057D02*
X558841Y1352057D01*
X558841Y1354232D02*
X561321Y1354232D01*
X561321Y1356407D02*
X558841Y1356407D01*
X563841Y1357487D02*
X566321Y1357487D01*
X566321Y1339007D01*
X563841Y1339007D01*
X563841Y1357487D01*
X563841Y1341182D02*
X566321Y1341182D01*
X566321Y1343357D02*
X563841Y1343357D01*
X563841Y1345532D02*
X566321Y1345532D01*
X566321Y1347707D02*
X563841Y1347707D01*
X563841Y1349882D02*
X566321Y1349882D01*
X566321Y1352057D02*
X563841Y1352057D01*
X563841Y1354232D02*
X566321Y1354232D01*
X566321Y1356407D02*
X563841Y1356407D01*
X568841Y1357487D02*
X571321Y1357487D01*
X571321Y1339007D01*
X568841Y1339007D01*
X568841Y1357487D01*
X568841Y1341182D02*
X571321Y1341182D01*
X571321Y1343357D02*
X568841Y1343357D01*
X568841Y1345532D02*
X571321Y1345532D01*
X571321Y1347707D02*
X568841Y1347707D01*
X568841Y1349882D02*
X571321Y1349882D01*
X571321Y1352057D02*
X568841Y1352057D01*
X568841Y1354232D02*
X571321Y1354232D01*
X571321Y1356407D02*
X568841Y1356407D01*
X573841Y1357487D02*
X576321Y1357487D01*
X576321Y1339007D01*
X573841Y1339007D01*
X573841Y1357487D01*
X573841Y1341182D02*
X576321Y1341182D01*
X576321Y1343357D02*
X573841Y1343357D01*
X573841Y1345532D02*
X576321Y1345532D01*
X576321Y1347707D02*
X573841Y1347707D01*
X573841Y1349882D02*
X576321Y1349882D01*
X576321Y1352057D02*
X573841Y1352057D01*
X573841Y1354232D02*
X576321Y1354232D01*
X576321Y1356407D02*
X573841Y1356407D01*
X578841Y1357487D02*
X581321Y1357487D01*
X581321Y1339007D01*
X578841Y1339007D01*
X578841Y1357487D01*
X578841Y1341182D02*
X581321Y1341182D01*
X581321Y1343357D02*
X578841Y1343357D01*
X578841Y1345532D02*
X581321Y1345532D01*
X581321Y1347707D02*
X578841Y1347707D01*
X578841Y1349882D02*
X581321Y1349882D01*
X581321Y1352057D02*
X578841Y1352057D01*
X578841Y1354232D02*
X581321Y1354232D01*
X581321Y1356407D02*
X578841Y1356407D01*
X583841Y1357487D02*
X586321Y1357487D01*
X586321Y1339007D01*
X583841Y1339007D01*
X583841Y1357487D01*
X583841Y1341182D02*
X586321Y1341182D01*
X586321Y1343357D02*
X583841Y1343357D01*
X583841Y1345532D02*
X586321Y1345532D01*
X586321Y1347707D02*
X583841Y1347707D01*
X583841Y1349882D02*
X586321Y1349882D01*
X586321Y1352057D02*
X583841Y1352057D01*
X583841Y1354232D02*
X586321Y1354232D01*
X586321Y1356407D02*
X583841Y1356407D01*
X588841Y1357487D02*
X591321Y1357487D01*
X591321Y1339007D01*
X588841Y1339007D01*
X588841Y1357487D01*
X588841Y1341182D02*
X591321Y1341182D01*
X591321Y1343357D02*
X588841Y1343357D01*
X588841Y1345532D02*
X591321Y1345532D01*
X591321Y1347707D02*
X588841Y1347707D01*
X588841Y1349882D02*
X591321Y1349882D01*
X591321Y1352057D02*
X588841Y1352057D01*
X588841Y1354232D02*
X591321Y1354232D01*
X591321Y1356407D02*
X588841Y1356407D01*
X593841Y1357487D02*
X596321Y1357487D01*
X596321Y1339007D01*
X593841Y1339007D01*
X593841Y1357487D01*
X593841Y1341182D02*
X596321Y1341182D01*
X596321Y1343357D02*
X593841Y1343357D01*
X593841Y1345532D02*
X596321Y1345532D01*
X596321Y1347707D02*
X593841Y1347707D01*
X593841Y1349882D02*
X596321Y1349882D01*
X596321Y1352057D02*
X593841Y1352057D01*
X593841Y1354232D02*
X596321Y1354232D01*
X596321Y1356407D02*
X593841Y1356407D01*
X598841Y1357487D02*
X601321Y1357487D01*
X601321Y1339007D01*
X598841Y1339007D01*
X598841Y1357487D01*
X598841Y1341182D02*
X601321Y1341182D01*
X601321Y1343357D02*
X598841Y1343357D01*
X598841Y1345532D02*
X601321Y1345532D01*
X601321Y1347707D02*
X598841Y1347707D01*
X598841Y1349882D02*
X601321Y1349882D01*
X601321Y1352057D02*
X598841Y1352057D01*
X598841Y1354232D02*
X601321Y1354232D01*
X601321Y1356407D02*
X598841Y1356407D01*
X603841Y1357487D02*
X606321Y1357487D01*
X606321Y1339007D01*
X603841Y1339007D01*
X603841Y1357487D01*
X603841Y1341182D02*
X606321Y1341182D01*
X606321Y1343357D02*
X603841Y1343357D01*
X603841Y1345532D02*
X606321Y1345532D01*
X606321Y1347707D02*
X603841Y1347707D01*
X603841Y1349882D02*
X606321Y1349882D01*
X606321Y1352057D02*
X603841Y1352057D01*
X603841Y1354232D02*
X606321Y1354232D01*
X606321Y1356407D02*
X603841Y1356407D01*
X608841Y1357487D02*
X611321Y1357487D01*
X611321Y1339007D01*
X608841Y1339007D01*
X608841Y1357487D01*
X608841Y1341182D02*
X611321Y1341182D01*
X611321Y1343357D02*
X608841Y1343357D01*
X608841Y1345532D02*
X611321Y1345532D01*
X611321Y1347707D02*
X608841Y1347707D01*
X608841Y1349882D02*
X611321Y1349882D01*
X611321Y1352057D02*
X608841Y1352057D01*
X608841Y1354232D02*
X611321Y1354232D01*
X611321Y1356407D02*
X608841Y1356407D01*
X613841Y1357487D02*
X616321Y1357487D01*
X616321Y1339007D01*
X613841Y1339007D01*
X613841Y1357487D01*
X613841Y1341182D02*
X616321Y1341182D01*
X616321Y1343357D02*
X613841Y1343357D01*
X613841Y1345532D02*
X616321Y1345532D01*
X616321Y1347707D02*
X613841Y1347707D01*
X613841Y1349882D02*
X616321Y1349882D01*
X616321Y1352057D02*
X613841Y1352057D01*
X613841Y1354232D02*
X616321Y1354232D01*
X616321Y1356407D02*
X613841Y1356407D01*
X618841Y1357487D02*
X621321Y1357487D01*
X621321Y1339007D01*
X618841Y1339007D01*
X618841Y1357487D01*
X618841Y1341182D02*
X621321Y1341182D01*
X621321Y1343357D02*
X618841Y1343357D01*
X618841Y1345532D02*
X621321Y1345532D01*
X621321Y1347707D02*
X618841Y1347707D01*
X618841Y1349882D02*
X621321Y1349882D01*
X621321Y1352057D02*
X618841Y1352057D01*
X618841Y1354232D02*
X621321Y1354232D01*
X621321Y1356407D02*
X618841Y1356407D01*
X623841Y1357487D02*
X626321Y1357487D01*
X626321Y1339007D01*
X623841Y1339007D01*
X623841Y1357487D01*
X623841Y1341182D02*
X626321Y1341182D01*
X626321Y1343357D02*
X623841Y1343357D01*
X623841Y1345532D02*
X626321Y1345532D01*
X626321Y1347707D02*
X623841Y1347707D01*
X623841Y1349882D02*
X626321Y1349882D01*
X626321Y1352057D02*
X623841Y1352057D01*
X623841Y1354232D02*
X626321Y1354232D01*
X626321Y1356407D02*
X623841Y1356407D01*
X628841Y1357487D02*
X631321Y1357487D01*
X631321Y1339007D01*
X628841Y1339007D01*
X628841Y1357487D01*
X628841Y1341182D02*
X631321Y1341182D01*
X631321Y1343357D02*
X628841Y1343357D01*
X628841Y1345532D02*
X631321Y1345532D01*
X631321Y1347707D02*
X628841Y1347707D01*
X628841Y1349882D02*
X631321Y1349882D01*
X631321Y1352057D02*
X628841Y1352057D01*
X628841Y1354232D02*
X631321Y1354232D01*
X631321Y1356407D02*
X628841Y1356407D01*
X633841Y1357487D02*
X636321Y1357487D01*
X636321Y1339007D01*
X633841Y1339007D01*
X633841Y1357487D01*
X633841Y1341182D02*
X636321Y1341182D01*
X636321Y1343357D02*
X633841Y1343357D01*
X633841Y1345532D02*
X636321Y1345532D01*
X636321Y1347707D02*
X633841Y1347707D01*
X633841Y1349882D02*
X636321Y1349882D01*
X636321Y1352057D02*
X633841Y1352057D01*
X633841Y1354232D02*
X636321Y1354232D01*
X636321Y1356407D02*
X633841Y1356407D01*
X638841Y1357487D02*
X641321Y1357487D01*
X641321Y1339007D01*
X638841Y1339007D01*
X638841Y1357487D01*
X638841Y1341182D02*
X641321Y1341182D01*
X641321Y1343357D02*
X638841Y1343357D01*
X638841Y1345532D02*
X641321Y1345532D01*
X641321Y1347707D02*
X638841Y1347707D01*
X638841Y1349882D02*
X641321Y1349882D01*
X641321Y1352057D02*
X638841Y1352057D01*
X638841Y1354232D02*
X641321Y1354232D01*
X641321Y1356407D02*
X638841Y1356407D01*
X643841Y1357487D02*
X646321Y1357487D01*
X646321Y1339007D01*
X643841Y1339007D01*
X643841Y1357487D01*
X643841Y1341182D02*
X646321Y1341182D01*
X646321Y1343357D02*
X643841Y1343357D01*
X643841Y1345532D02*
X646321Y1345532D01*
X646321Y1347707D02*
X643841Y1347707D01*
X643841Y1349882D02*
X646321Y1349882D01*
X646321Y1352057D02*
X643841Y1352057D01*
X643841Y1354232D02*
X646321Y1354232D01*
X646321Y1356407D02*
X643841Y1356407D01*
X648841Y1357487D02*
X651321Y1357487D01*
X651321Y1339007D01*
X648841Y1339007D01*
X648841Y1357487D01*
X648841Y1341182D02*
X651321Y1341182D01*
X651321Y1343357D02*
X648841Y1343357D01*
X648841Y1345532D02*
X651321Y1345532D01*
X651321Y1347707D02*
X648841Y1347707D01*
X648841Y1349882D02*
X651321Y1349882D01*
X651321Y1352057D02*
X648841Y1352057D01*
X648841Y1354232D02*
X651321Y1354232D01*
X651321Y1356407D02*
X648841Y1356407D01*
X653841Y1357487D02*
X656321Y1357487D01*
X656321Y1339007D01*
X653841Y1339007D01*
X653841Y1357487D01*
X653841Y1341182D02*
X656321Y1341182D01*
X656321Y1343357D02*
X653841Y1343357D01*
X653841Y1345532D02*
X656321Y1345532D01*
X656321Y1347707D02*
X653841Y1347707D01*
X653841Y1349882D02*
X656321Y1349882D01*
X656321Y1352057D02*
X653841Y1352057D01*
X653841Y1354232D02*
X656321Y1354232D01*
X656321Y1356407D02*
X653841Y1356407D01*
X658841Y1357487D02*
X661321Y1357487D01*
X661321Y1339007D01*
X658841Y1339007D01*
X658841Y1357487D01*
X658841Y1341182D02*
X661321Y1341182D01*
X661321Y1343357D02*
X658841Y1343357D01*
X658841Y1345532D02*
X661321Y1345532D01*
X661321Y1347707D02*
X658841Y1347707D01*
X658841Y1349882D02*
X661321Y1349882D01*
X661321Y1352057D02*
X658841Y1352057D01*
X658841Y1354232D02*
X661321Y1354232D01*
X661321Y1356407D02*
X658841Y1356407D01*
X663841Y1357487D02*
X666321Y1357487D01*
X666321Y1339007D01*
X663841Y1339007D01*
X663841Y1357487D01*
X663841Y1341182D02*
X666321Y1341182D01*
X666321Y1343357D02*
X663841Y1343357D01*
X663841Y1345532D02*
X666321Y1345532D01*
X666321Y1347707D02*
X663841Y1347707D01*
X663841Y1349882D02*
X666321Y1349882D01*
X666321Y1352057D02*
X663841Y1352057D01*
X663841Y1354232D02*
X666321Y1354232D01*
X666321Y1356407D02*
X663841Y1356407D01*
D11*
X395081Y902497D03*
X395081Y944497D03*
X408081Y923497D03*
X755081Y944497D03*
X755081Y902497D03*
X742081Y923497D03*
D12*
X746531Y1255547D03*
X417601Y874547D03*
D10*
X868931Y1357487D02*
X871411Y1357487D01*
X871411Y1339007D01*
X868931Y1339007D01*
X868931Y1357487D01*
X868931Y1341182D02*
X871411Y1341182D01*
X871411Y1343357D02*
X868931Y1343357D01*
X868931Y1345532D02*
X871411Y1345532D01*
X871411Y1347707D02*
X868931Y1347707D01*
X868931Y1349882D02*
X871411Y1349882D01*
X871411Y1352057D02*
X868931Y1352057D01*
X868931Y1354232D02*
X871411Y1354232D01*
X871411Y1356407D02*
X868931Y1356407D01*
X873931Y1357487D02*
X876411Y1357487D01*
X876411Y1339007D01*
X873931Y1339007D01*
X873931Y1357487D01*
X873931Y1341182D02*
X876411Y1341182D01*
X876411Y1343357D02*
X873931Y1343357D01*
X873931Y1345532D02*
X876411Y1345532D01*
X876411Y1347707D02*
X873931Y1347707D01*
X873931Y1349882D02*
X876411Y1349882D01*
X876411Y1352057D02*
X873931Y1352057D01*
X873931Y1354232D02*
X876411Y1354232D01*
X876411Y1356407D02*
X873931Y1356407D01*
X878931Y1357487D02*
X881411Y1357487D01*
X881411Y1339007D01*
X878931Y1339007D01*
X878931Y1357487D01*
X878931Y1341182D02*
X881411Y1341182D01*
X881411Y1343357D02*
X878931Y1343357D01*
X878931Y1345532D02*
X881411Y1345532D01*
X881411Y1347707D02*
X878931Y1347707D01*
X878931Y1349882D02*
X881411Y1349882D01*
X881411Y1352057D02*
X878931Y1352057D01*
X878931Y1354232D02*
X881411Y1354232D01*
X881411Y1356407D02*
X878931Y1356407D01*
X883931Y1357487D02*
X886411Y1357487D01*
X886411Y1339007D01*
X883931Y1339007D01*
X883931Y1357487D01*
X883931Y1341182D02*
X886411Y1341182D01*
X886411Y1343357D02*
X883931Y1343357D01*
X883931Y1345532D02*
X886411Y1345532D01*
X886411Y1347707D02*
X883931Y1347707D01*
X883931Y1349882D02*
X886411Y1349882D01*
X886411Y1352057D02*
X883931Y1352057D01*
X883931Y1354232D02*
X886411Y1354232D01*
X886411Y1356407D02*
X883931Y1356407D01*
X888931Y1357487D02*
X891411Y1357487D01*
X891411Y1339007D01*
X888931Y1339007D01*
X888931Y1357487D01*
X888931Y1341182D02*
X891411Y1341182D01*
X891411Y1343357D02*
X888931Y1343357D01*
X888931Y1345532D02*
X891411Y1345532D01*
X891411Y1347707D02*
X888931Y1347707D01*
X888931Y1349882D02*
X891411Y1349882D01*
X891411Y1352057D02*
X888931Y1352057D01*
X888931Y1354232D02*
X891411Y1354232D01*
X891411Y1356407D02*
X888931Y1356407D01*
X893931Y1357487D02*
X896411Y1357487D01*
X896411Y1339007D01*
X893931Y1339007D01*
X893931Y1357487D01*
X893931Y1341182D02*
X896411Y1341182D01*
X896411Y1343357D02*
X893931Y1343357D01*
X893931Y1345532D02*
X896411Y1345532D01*
X896411Y1347707D02*
X893931Y1347707D01*
X893931Y1349882D02*
X896411Y1349882D01*
X896411Y1352057D02*
X893931Y1352057D01*
X893931Y1354232D02*
X896411Y1354232D01*
X896411Y1356407D02*
X893931Y1356407D01*
X898931Y1357487D02*
X901411Y1357487D01*
X901411Y1339007D01*
X898931Y1339007D01*
X898931Y1357487D01*
X898931Y1341182D02*
X901411Y1341182D01*
X901411Y1343357D02*
X898931Y1343357D01*
X898931Y1345532D02*
X901411Y1345532D01*
X901411Y1347707D02*
X898931Y1347707D01*
X898931Y1349882D02*
X901411Y1349882D01*
X901411Y1352057D02*
X898931Y1352057D01*
X898931Y1354232D02*
X901411Y1354232D01*
X901411Y1356407D02*
X898931Y1356407D01*
X903931Y1357487D02*
X906411Y1357487D01*
X906411Y1339007D01*
X903931Y1339007D01*
X903931Y1357487D01*
X903931Y1341182D02*
X906411Y1341182D01*
X906411Y1343357D02*
X903931Y1343357D01*
X903931Y1345532D02*
X906411Y1345532D01*
X906411Y1347707D02*
X903931Y1347707D01*
X903931Y1349882D02*
X906411Y1349882D01*
X906411Y1352057D02*
X903931Y1352057D01*
X903931Y1354232D02*
X906411Y1354232D01*
X906411Y1356407D02*
X903931Y1356407D01*
X908931Y1357487D02*
X911411Y1357487D01*
X911411Y1339007D01*
X908931Y1339007D01*
X908931Y1357487D01*
X908931Y1341182D02*
X911411Y1341182D01*
X911411Y1343357D02*
X908931Y1343357D01*
X908931Y1345532D02*
X911411Y1345532D01*
X911411Y1347707D02*
X908931Y1347707D01*
X908931Y1349882D02*
X911411Y1349882D01*
X911411Y1352057D02*
X908931Y1352057D01*
X908931Y1354232D02*
X911411Y1354232D01*
X911411Y1356407D02*
X908931Y1356407D01*
X913931Y1357487D02*
X916411Y1357487D01*
X916411Y1339007D01*
X913931Y1339007D01*
X913931Y1357487D01*
X913931Y1341182D02*
X916411Y1341182D01*
X916411Y1343357D02*
X913931Y1343357D01*
X913931Y1345532D02*
X916411Y1345532D01*
X916411Y1347707D02*
X913931Y1347707D01*
X913931Y1349882D02*
X916411Y1349882D01*
X916411Y1352057D02*
X913931Y1352057D01*
X913931Y1354232D02*
X916411Y1354232D01*
X916411Y1356407D02*
X913931Y1356407D01*
X918931Y1357487D02*
X921411Y1357487D01*
X921411Y1339007D01*
X918931Y1339007D01*
X918931Y1357487D01*
X918931Y1341182D02*
X921411Y1341182D01*
X921411Y1343357D02*
X918931Y1343357D01*
X918931Y1345532D02*
X921411Y1345532D01*
X921411Y1347707D02*
X918931Y1347707D01*
X918931Y1349882D02*
X921411Y1349882D01*
X921411Y1352057D02*
X918931Y1352057D01*
X918931Y1354232D02*
X921411Y1354232D01*
X921411Y1356407D02*
X918931Y1356407D01*
X943931Y1357487D02*
X946411Y1357487D01*
X946411Y1339007D01*
X943931Y1339007D01*
X943931Y1357487D01*
X943931Y1341182D02*
X946411Y1341182D01*
X946411Y1343357D02*
X943931Y1343357D01*
X943931Y1345532D02*
X946411Y1345532D01*
X946411Y1347707D02*
X943931Y1347707D01*
X943931Y1349882D02*
X946411Y1349882D01*
X946411Y1352057D02*
X943931Y1352057D01*
X943931Y1354232D02*
X946411Y1354232D01*
X946411Y1356407D02*
X943931Y1356407D01*
X948931Y1357487D02*
X951411Y1357487D01*
X951411Y1339007D01*
X948931Y1339007D01*
X948931Y1357487D01*
X948931Y1341182D02*
X951411Y1341182D01*
X951411Y1343357D02*
X948931Y1343357D01*
X948931Y1345532D02*
X951411Y1345532D01*
X951411Y1347707D02*
X948931Y1347707D01*
X948931Y1349882D02*
X951411Y1349882D01*
X951411Y1352057D02*
X948931Y1352057D01*
X948931Y1354232D02*
X951411Y1354232D01*
X951411Y1356407D02*
X948931Y1356407D01*
X953931Y1357487D02*
X956411Y1357487D01*
X956411Y1339007D01*
X953931Y1339007D01*
X953931Y1357487D01*
X953931Y1341182D02*
X956411Y1341182D01*
X956411Y1343357D02*
X953931Y1343357D01*
X953931Y1345532D02*
X956411Y1345532D01*
X956411Y1347707D02*
X953931Y1347707D01*
X953931Y1349882D02*
X956411Y1349882D01*
X956411Y1352057D02*
X953931Y1352057D01*
X953931Y1354232D02*
X956411Y1354232D01*
X956411Y1356407D02*
X953931Y1356407D01*
X958931Y1357487D02*
X961411Y1357487D01*
X961411Y1339007D01*
X958931Y1339007D01*
X958931Y1357487D01*
X958931Y1341182D02*
X961411Y1341182D01*
X961411Y1343357D02*
X958931Y1343357D01*
X958931Y1345532D02*
X961411Y1345532D01*
X961411Y1347707D02*
X958931Y1347707D01*
X958931Y1349882D02*
X961411Y1349882D01*
X961411Y1352057D02*
X958931Y1352057D01*
X958931Y1354232D02*
X961411Y1354232D01*
X961411Y1356407D02*
X958931Y1356407D01*
X963931Y1357487D02*
X966411Y1357487D01*
X966411Y1339007D01*
X963931Y1339007D01*
X963931Y1357487D01*
X963931Y1341182D02*
X966411Y1341182D01*
X966411Y1343357D02*
X963931Y1343357D01*
X963931Y1345532D02*
X966411Y1345532D01*
X966411Y1347707D02*
X963931Y1347707D01*
X963931Y1349882D02*
X966411Y1349882D01*
X966411Y1352057D02*
X963931Y1352057D01*
X963931Y1354232D02*
X966411Y1354232D01*
X966411Y1356407D02*
X963931Y1356407D01*
X968931Y1357487D02*
X971411Y1357487D01*
X971411Y1339007D01*
X968931Y1339007D01*
X968931Y1357487D01*
X968931Y1341182D02*
X971411Y1341182D01*
X971411Y1343357D02*
X968931Y1343357D01*
X968931Y1345532D02*
X971411Y1345532D01*
X971411Y1347707D02*
X968931Y1347707D01*
X968931Y1349882D02*
X971411Y1349882D01*
X971411Y1352057D02*
X968931Y1352057D01*
X968931Y1354232D02*
X971411Y1354232D01*
X971411Y1356407D02*
X968931Y1356407D01*
X973931Y1357487D02*
X976411Y1357487D01*
X976411Y1339007D01*
X973931Y1339007D01*
X973931Y1357487D01*
X973931Y1341182D02*
X976411Y1341182D01*
X976411Y1343357D02*
X973931Y1343357D01*
X973931Y1345532D02*
X976411Y1345532D01*
X976411Y1347707D02*
X973931Y1347707D01*
X973931Y1349882D02*
X976411Y1349882D01*
X976411Y1352057D02*
X973931Y1352057D01*
X973931Y1354232D02*
X976411Y1354232D01*
X976411Y1356407D02*
X973931Y1356407D01*
X978931Y1357487D02*
X981411Y1357487D01*
X981411Y1339007D01*
X978931Y1339007D01*
X978931Y1357487D01*
X978931Y1341182D02*
X981411Y1341182D01*
X981411Y1343357D02*
X978931Y1343357D01*
X978931Y1345532D02*
X981411Y1345532D01*
X981411Y1347707D02*
X978931Y1347707D01*
X978931Y1349882D02*
X981411Y1349882D01*
X981411Y1352057D02*
X978931Y1352057D01*
X978931Y1354232D02*
X981411Y1354232D01*
X981411Y1356407D02*
X978931Y1356407D01*
X983931Y1357487D02*
X986411Y1357487D01*
X986411Y1339007D01*
X983931Y1339007D01*
X983931Y1357487D01*
X983931Y1341182D02*
X986411Y1341182D01*
X986411Y1343357D02*
X983931Y1343357D01*
X983931Y1345532D02*
X986411Y1345532D01*
X986411Y1347707D02*
X983931Y1347707D01*
X983931Y1349882D02*
X986411Y1349882D01*
X986411Y1352057D02*
X983931Y1352057D01*
X983931Y1354232D02*
X986411Y1354232D01*
X986411Y1356407D02*
X983931Y1356407D01*
X988931Y1357487D02*
X991411Y1357487D01*
X991411Y1339007D01*
X988931Y1339007D01*
X988931Y1357487D01*
X988931Y1341182D02*
X991411Y1341182D01*
X991411Y1343357D02*
X988931Y1343357D01*
X988931Y1345532D02*
X991411Y1345532D01*
X991411Y1347707D02*
X988931Y1347707D01*
X988931Y1349882D02*
X991411Y1349882D01*
X991411Y1352057D02*
X988931Y1352057D01*
X988931Y1354232D02*
X991411Y1354232D01*
X991411Y1356407D02*
X988931Y1356407D01*
X993931Y1357487D02*
X996411Y1357487D01*
X996411Y1339007D01*
X993931Y1339007D01*
X993931Y1357487D01*
X993931Y1341182D02*
X996411Y1341182D01*
X996411Y1343357D02*
X993931Y1343357D01*
X993931Y1345532D02*
X996411Y1345532D01*
X996411Y1347707D02*
X993931Y1347707D01*
X993931Y1349882D02*
X996411Y1349882D01*
X996411Y1352057D02*
X993931Y1352057D01*
X993931Y1354232D02*
X996411Y1354232D01*
X996411Y1356407D02*
X993931Y1356407D01*
X998931Y1357487D02*
X1001411Y1357487D01*
X1001411Y1339007D01*
X998931Y1339007D01*
X998931Y1357487D01*
X998931Y1341182D02*
X1001411Y1341182D01*
X1001411Y1343357D02*
X998931Y1343357D01*
X998931Y1345532D02*
X1001411Y1345532D01*
X1001411Y1347707D02*
X998931Y1347707D01*
X998931Y1349882D02*
X1001411Y1349882D01*
X1001411Y1352057D02*
X998931Y1352057D01*
X998931Y1354232D02*
X1001411Y1354232D01*
X1001411Y1356407D02*
X998931Y1356407D01*
X1003931Y1357487D02*
X1006411Y1357487D01*
X1006411Y1339007D01*
X1003931Y1339007D01*
X1003931Y1357487D01*
X1003931Y1341182D02*
X1006411Y1341182D01*
X1006411Y1343357D02*
X1003931Y1343357D01*
X1003931Y1345532D02*
X1006411Y1345532D01*
X1006411Y1347707D02*
X1003931Y1347707D01*
X1003931Y1349882D02*
X1006411Y1349882D01*
X1006411Y1352057D02*
X1003931Y1352057D01*
X1003931Y1354232D02*
X1006411Y1354232D01*
X1006411Y1356407D02*
X1003931Y1356407D01*
X1008931Y1357487D02*
X1011411Y1357487D01*
X1011411Y1339007D01*
X1008931Y1339007D01*
X1008931Y1357487D01*
X1008931Y1341182D02*
X1011411Y1341182D01*
X1011411Y1343357D02*
X1008931Y1343357D01*
X1008931Y1345532D02*
X1011411Y1345532D01*
X1011411Y1347707D02*
X1008931Y1347707D01*
X1008931Y1349882D02*
X1011411Y1349882D01*
X1011411Y1352057D02*
X1008931Y1352057D01*
X1008931Y1354232D02*
X1011411Y1354232D01*
X1011411Y1356407D02*
X1008931Y1356407D01*
X1013931Y1357487D02*
X1016411Y1357487D01*
X1016411Y1339007D01*
X1013931Y1339007D01*
X1013931Y1357487D01*
X1013931Y1341182D02*
X1016411Y1341182D01*
X1016411Y1343357D02*
X1013931Y1343357D01*
X1013931Y1345532D02*
X1016411Y1345532D01*
X1016411Y1347707D02*
X1013931Y1347707D01*
X1013931Y1349882D02*
X1016411Y1349882D01*
X1016411Y1352057D02*
X1013931Y1352057D01*
X1013931Y1354232D02*
X1016411Y1354232D01*
X1016411Y1356407D02*
X1013931Y1356407D01*
X1018931Y1357487D02*
X1021411Y1357487D01*
X1021411Y1339007D01*
X1018931Y1339007D01*
X1018931Y1357487D01*
X1018931Y1341182D02*
X1021411Y1341182D01*
X1021411Y1343357D02*
X1018931Y1343357D01*
X1018931Y1345532D02*
X1021411Y1345532D01*
X1021411Y1347707D02*
X1018931Y1347707D01*
X1018931Y1349882D02*
X1021411Y1349882D01*
X1021411Y1352057D02*
X1018931Y1352057D01*
X1018931Y1354232D02*
X1021411Y1354232D01*
X1021411Y1356407D02*
X1018931Y1356407D01*
X1023931Y1357487D02*
X1026411Y1357487D01*
X1026411Y1339007D01*
X1023931Y1339007D01*
X1023931Y1357487D01*
X1023931Y1341182D02*
X1026411Y1341182D01*
X1026411Y1343357D02*
X1023931Y1343357D01*
X1023931Y1345532D02*
X1026411Y1345532D01*
X1026411Y1347707D02*
X1023931Y1347707D01*
X1023931Y1349882D02*
X1026411Y1349882D01*
X1026411Y1352057D02*
X1023931Y1352057D01*
X1023931Y1354232D02*
X1026411Y1354232D01*
X1026411Y1356407D02*
X1023931Y1356407D01*
X1028931Y1357487D02*
X1031411Y1357487D01*
X1031411Y1339007D01*
X1028931Y1339007D01*
X1028931Y1357487D01*
X1028931Y1341182D02*
X1031411Y1341182D01*
X1031411Y1343357D02*
X1028931Y1343357D01*
X1028931Y1345532D02*
X1031411Y1345532D01*
X1031411Y1347707D02*
X1028931Y1347707D01*
X1028931Y1349882D02*
X1031411Y1349882D01*
X1031411Y1352057D02*
X1028931Y1352057D01*
X1028931Y1354232D02*
X1031411Y1354232D01*
X1031411Y1356407D02*
X1028931Y1356407D01*
X1033931Y1357487D02*
X1036411Y1357487D01*
X1036411Y1339007D01*
X1033931Y1339007D01*
X1033931Y1357487D01*
X1033931Y1341182D02*
X1036411Y1341182D01*
X1036411Y1343357D02*
X1033931Y1343357D01*
X1033931Y1345532D02*
X1036411Y1345532D01*
X1036411Y1347707D02*
X1033931Y1347707D01*
X1033931Y1349882D02*
X1036411Y1349882D01*
X1036411Y1352057D02*
X1033931Y1352057D01*
X1033931Y1354232D02*
X1036411Y1354232D01*
X1036411Y1356407D02*
X1033931Y1356407D01*
X1038931Y1357487D02*
X1041411Y1357487D01*
X1041411Y1339007D01*
X1038931Y1339007D01*
X1038931Y1357487D01*
X1038931Y1341182D02*
X1041411Y1341182D01*
X1041411Y1343357D02*
X1038931Y1343357D01*
X1038931Y1345532D02*
X1041411Y1345532D01*
X1041411Y1347707D02*
X1038931Y1347707D01*
X1038931Y1349882D02*
X1041411Y1349882D01*
X1041411Y1352057D02*
X1038931Y1352057D01*
X1038931Y1354232D02*
X1041411Y1354232D01*
X1041411Y1356407D02*
X1038931Y1356407D01*
X1043931Y1357487D02*
X1046411Y1357487D01*
X1046411Y1339007D01*
X1043931Y1339007D01*
X1043931Y1357487D01*
X1043931Y1341182D02*
X1046411Y1341182D01*
X1046411Y1343357D02*
X1043931Y1343357D01*
X1043931Y1345532D02*
X1046411Y1345532D01*
X1046411Y1347707D02*
X1043931Y1347707D01*
X1043931Y1349882D02*
X1046411Y1349882D01*
X1046411Y1352057D02*
X1043931Y1352057D01*
X1043931Y1354232D02*
X1046411Y1354232D01*
X1046411Y1356407D02*
X1043931Y1356407D01*
X1048931Y1357487D02*
X1051411Y1357487D01*
X1051411Y1339007D01*
X1048931Y1339007D01*
X1048931Y1357487D01*
X1048931Y1341182D02*
X1051411Y1341182D01*
X1051411Y1343357D02*
X1048931Y1343357D01*
X1048931Y1345532D02*
X1051411Y1345532D01*
X1051411Y1347707D02*
X1048931Y1347707D01*
X1048931Y1349882D02*
X1051411Y1349882D01*
X1051411Y1352057D02*
X1048931Y1352057D01*
X1048931Y1354232D02*
X1051411Y1354232D01*
X1051411Y1356407D02*
X1048931Y1356407D01*
D11*
X780171Y902497D03*
X780171Y944497D03*
X793171Y923497D03*
X1140171Y944497D03*
X1140171Y902497D03*
X1127171Y923497D03*
D12*
X1131621Y1255547D03*
X802691Y874547D03*
X-26238Y1299997D03*
X1176401Y1299997D03*
D13*
X-35293Y63500D02*
X-35290Y63722D01*
X-35282Y63944D01*
X-35268Y64166D01*
X-35249Y64388D01*
X-35225Y64608D01*
X-35195Y64829D01*
X-35160Y65048D01*
X-35119Y65267D01*
X-35073Y65484D01*
X-35022Y65700D01*
X-34965Y65915D01*
X-34903Y66129D01*
X-34836Y66340D01*
X-34764Y66551D01*
X-34686Y66759D01*
X-34604Y66965D01*
X-34516Y67169D01*
X-34424Y67372D01*
X-34326Y67571D01*
X-34224Y67768D01*
X-34117Y67963D01*
X-34005Y68155D01*
X-33888Y68344D01*
X-33767Y68531D01*
X-33641Y68714D01*
X-33511Y68894D01*
X-33376Y69071D01*
X-33238Y69244D01*
X-33095Y69414D01*
X-32947Y69581D01*
X-32796Y69744D01*
X-32641Y69903D01*
X-32482Y70058D01*
X-32319Y70209D01*
X-32152Y70357D01*
X-31982Y70500D01*
X-31809Y70638D01*
X-31632Y70773D01*
X-31452Y70903D01*
X-31269Y71029D01*
X-31082Y71150D01*
X-30893Y71267D01*
X-30701Y71379D01*
X-30506Y71486D01*
X-30309Y71588D01*
X-30110Y71686D01*
X-29907Y71778D01*
X-29703Y71866D01*
X-29497Y71948D01*
X-29289Y72026D01*
X-29078Y72098D01*
X-28867Y72165D01*
X-28653Y72227D01*
X-28438Y72284D01*
X-28222Y72335D01*
X-28005Y72381D01*
X-27786Y72422D01*
X-27567Y72457D01*
X-27346Y72487D01*
X-27126Y72511D01*
X-26904Y72530D01*
X-26682Y72544D01*
X-26460Y72552D01*
X-26238Y72555D01*
X-26016Y72552D01*
X-25794Y72544D01*
X-25572Y72530D01*
X-25350Y72511D01*
X-25130Y72487D01*
X-24909Y72457D01*
X-24690Y72422D01*
X-24471Y72381D01*
X-24254Y72335D01*
X-24038Y72284D01*
X-23823Y72227D01*
X-23609Y72165D01*
X-23398Y72098D01*
X-23187Y72026D01*
X-22979Y71948D01*
X-22773Y71866D01*
X-22569Y71778D01*
X-22366Y71686D01*
X-22167Y71588D01*
X-21970Y71486D01*
X-21775Y71379D01*
X-21583Y71267D01*
X-21394Y71150D01*
X-21207Y71029D01*
X-21024Y70903D01*
X-20844Y70773D01*
X-20667Y70638D01*
X-20494Y70500D01*
X-20324Y70357D01*
X-20157Y70209D01*
X-19994Y70058D01*
X-19835Y69903D01*
X-19680Y69744D01*
X-19529Y69581D01*
X-19381Y69414D01*
X-19238Y69244D01*
X-19100Y69071D01*
X-18965Y68894D01*
X-18835Y68714D01*
X-18709Y68531D01*
X-18588Y68344D01*
X-18471Y68155D01*
X-18359Y67963D01*
X-18252Y67768D01*
X-18150Y67571D01*
X-18052Y67372D01*
X-17960Y67169D01*
X-17872Y66965D01*
X-17790Y66759D01*
X-17712Y66551D01*
X-17640Y66340D01*
X-17573Y66129D01*
X-17511Y65915D01*
X-17454Y65700D01*
X-17403Y65484D01*
X-17357Y65267D01*
X-17316Y65048D01*
X-17281Y64829D01*
X-17251Y64608D01*
X-17227Y64388D01*
X-17208Y64166D01*
X-17194Y63944D01*
X-17186Y63722D01*
X-17183Y63500D01*
X-17186Y63278D01*
X-17194Y63056D01*
X-17208Y62834D01*
X-17227Y62612D01*
X-17251Y62392D01*
X-17281Y62171D01*
X-17316Y61952D01*
X-17357Y61733D01*
X-17403Y61516D01*
X-17454Y61300D01*
X-17511Y61085D01*
X-17573Y60871D01*
X-17640Y60660D01*
X-17712Y60449D01*
X-17790Y60241D01*
X-17872Y60035D01*
X-17960Y59831D01*
X-18052Y59628D01*
X-18150Y59429D01*
X-18252Y59232D01*
X-18359Y59037D01*
X-18471Y58845D01*
X-18588Y58656D01*
X-18709Y58469D01*
X-18835Y58286D01*
X-18965Y58106D01*
X-19100Y57929D01*
X-19238Y57756D01*
X-19381Y57586D01*
X-19529Y57419D01*
X-19680Y57256D01*
X-19835Y57097D01*
X-19994Y56942D01*
X-20157Y56791D01*
X-20324Y56643D01*
X-20494Y56500D01*
X-20667Y56362D01*
X-20844Y56227D01*
X-21024Y56097D01*
X-21207Y55971D01*
X-21394Y55850D01*
X-21583Y55733D01*
X-21775Y55621D01*
X-21970Y55514D01*
X-22167Y55412D01*
X-22366Y55314D01*
X-22569Y55222D01*
X-22773Y55134D01*
X-22979Y55052D01*
X-23187Y54974D01*
X-23398Y54902D01*
X-23609Y54835D01*
X-23823Y54773D01*
X-24038Y54716D01*
X-24254Y54665D01*
X-24471Y54619D01*
X-24690Y54578D01*
X-24909Y54543D01*
X-25130Y54513D01*
X-25350Y54489D01*
X-25572Y54470D01*
X-25794Y54456D01*
X-26016Y54448D01*
X-26238Y54445D01*
X-26460Y54448D01*
X-26682Y54456D01*
X-26904Y54470D01*
X-27126Y54489D01*
X-27346Y54513D01*
X-27567Y54543D01*
X-27786Y54578D01*
X-28005Y54619D01*
X-28222Y54665D01*
X-28438Y54716D01*
X-28653Y54773D01*
X-28867Y54835D01*
X-29078Y54902D01*
X-29289Y54974D01*
X-29497Y55052D01*
X-29703Y55134D01*
X-29907Y55222D01*
X-30110Y55314D01*
X-30309Y55412D01*
X-30506Y55514D01*
X-30701Y55621D01*
X-30893Y55733D01*
X-31082Y55850D01*
X-31269Y55971D01*
X-31452Y56097D01*
X-31632Y56227D01*
X-31809Y56362D01*
X-31982Y56500D01*
X-32152Y56643D01*
X-32319Y56791D01*
X-32482Y56942D01*
X-32641Y57097D01*
X-32796Y57256D01*
X-32947Y57419D01*
X-33095Y57586D01*
X-33238Y57756D01*
X-33376Y57929D01*
X-33511Y58106D01*
X-33641Y58286D01*
X-33767Y58469D01*
X-33888Y58656D01*
X-34005Y58845D01*
X-34117Y59037D01*
X-34224Y59232D01*
X-34326Y59429D01*
X-34424Y59628D01*
X-34516Y59831D01*
X-34604Y60035D01*
X-34686Y60241D01*
X-34764Y60449D01*
X-34836Y60660D01*
X-34903Y60871D01*
X-34965Y61085D01*
X-35022Y61300D01*
X-35073Y61516D01*
X-35119Y61733D01*
X-35160Y61952D01*
X-35195Y62171D01*
X-35225Y62392D01*
X-35249Y62612D01*
X-35268Y62834D01*
X-35282Y63056D01*
X-35290Y63278D01*
X-35293Y63500D01*
D14*
X-26238Y63500D03*
M02*
